<?xml version="1.0" encoding="UTF-8"?>
<svg xmlns="http://www.w3.org/2000/svg" xmlns:xlink="http://www.w3.org/1999/xlink" viewBox="0 0 26.61 29.84">
  <defs>
    <style>
      .cls-1 {
        fill: url(#linear-gradient-8);
      }

      .cls-2 {
        fill: url(#linear-gradient-5);
      }

      .cls-3 {
        fill: url(#linear-gradient-9);
      }

      .cls-4 {
        fill: url(#linear-gradient-4);
      }

      .cls-5 {
        fill: url(#linear-gradient-3);
      }

      .cls-6 {
        fill: #202020;
      }

      .cls-6, .cls-7, .cls-8, .cls-9, .cls-10 {
        mix-blend-mode: overlay;
      }

      .cls-11 {
        isolation: isolate;
      }

      .cls-7 {
        fill: url(#linear-gradient);
      }

      .cls-12 {
        fill: #ff5c97;
      }

      .cls-8 {
        fill: url(#linear-gradient-2);
      }

      .cls-9 {
        fill: url(#linear-gradient-6);
      }

      .cls-10 {
        fill: url(#linear-gradient-7);
      }

      .cls-13 {
        fill: #fff645;
      }

      .cls-14 {
        fill: url(#linear-gradient-10);
      }
    </style>
    <linearGradient id="linear-gradient" x1="12.72" y1="3.38" x2="17.34" y2="12.25" gradientUnits="userSpaceOnUse">
      <stop offset=".58" stop-color="#fff"/>
      <stop offset="1" stop-color="#f7f7f7" stop-opacity="0"/>
    </linearGradient>
    <linearGradient id="linear-gradient-2" x1="16.75" y1="2.65" x2="17.87" y2="8.65" gradientUnits="userSpaceOnUse">
      <stop offset=".48" stop-color="#fff"/>
      <stop offset="1" stop-color="#f7f7f7" stop-opacity="0"/>
    </linearGradient>
    <linearGradient id="linear-gradient-3" x1="375.69" y1="-323.38" x2="376.11" y2="-321.16" gradientTransform="translate(-308.9 -371.98) rotate(90)" xlink:href="#linear-gradient-2"/>
    <linearGradient id="linear-gradient-4" x1="374.95" y1="-322.03" x2="375.18" y2="-320.85" gradientTransform="translate(-308.97 -370.63) rotate(90)" xlink:href="#linear-gradient-2"/>
    <linearGradient id="linear-gradient-5" x1="20.75" y1="18.26" x2="17.39" y2="13" gradientUnits="userSpaceOnUse">
      <stop offset=".13" stop-color="#fffda1"/>
      <stop offset="1" stop-color="#f7c82f" stop-opacity="0"/>
    </linearGradient>
    <linearGradient id="linear-gradient-6" x1="457.11" y1="-113.94" x2="459.2" y2="-109.92" gradientTransform="translate(-421.8 -176.4) rotate(38.83)" xlink:href="#linear-gradient"/>
    <linearGradient id="linear-gradient-7" x1="458.93" y1="-114.26" x2="459.44" y2="-111.55" gradientTransform="translate(-421.8 -176.4) rotate(38.83)" xlink:href="#linear-gradient-2"/>
    <linearGradient id="linear-gradient-8" x1="653.31" y1="-688.57" x2="653.5" y2="-687.56" gradientTransform="translate(-682.3 -631.26) rotate(90)" xlink:href="#linear-gradient-2"/>
    <linearGradient id="linear-gradient-9" x1="652.98" y1="-687.96" x2="653.08" y2="-687.42" gradientTransform="translate(-682.36 -631.11) rotate(90)" xlink:href="#linear-gradient-2"/>
    <linearGradient id="linear-gradient-10" x1="460.75" y1="-107.2" x2="459.22" y2="-109.58" gradientTransform="translate(-421.8 -176.4) rotate(38.83)" xlink:href="#linear-gradient-5"/>
  </defs>
  <g class="cls-11">
    <g id="Layer_2" data-name="Layer 2">
      <g id="Layer_1-2" data-name="Layer 1">
        <g>
          <g>
            <g>
              <path class="cls-13" d="M14.46,21.08c-1.03,0-1.93-.7-2.23-1.74l-1.27-4.51-4.08-1.23c-1.06-.31-1.67-1.41-1.42-2.56.03-.12.06-.22.1-.32.14-.43.42-.82.8-1.12l3.51-2.69.02-4.22c0-.75.39-1.45,1.03-1.87.38-.26.84-.41,1.3-.41.4,0,.78.11,1.11.33l3.42,2.25,4.1-1.67c.29-.12.6-.18.91-.18.96,0,1.81.59,2.11,1.48.15.38.17.84.04,1.31l-1.29,4.34,3,3.61c.61.73.75,1.73.35,2.59-.39.84-1.21,1.37-2.14,1.38l-4.77.09-2.66,4.06c-.46.69-1.17,1.08-1.95,1.08Z"/>
              <path class="cls-12" d="M12.23.81c.31,0,.61.08.89.26l3.59,2.37,4.3-1.75c.25-.1.51-.15.75-.15.79,0,1.49.5,1.73,1.21.13.32.14.69.03,1.08l-1.34,4.54,3.14,3.77c1.09,1.3.23,3.29-1.48,3.31l-4.99.1-2.77,4.24c-.41.61-1.01.9-1.61.9-.79,0-1.57-.51-1.84-1.45l-1.33-4.72-4.29-1.29c-.92-.27-1.33-1.22-1.14-2.09.02-.09.04-.17.08-.25.12-.35.34-.7.68-.96l3.67-2.81.02-4.42c0-.66.35-1.22.85-1.54.32-.22.7-.35,1.08-.35M12.23,0c-.54,0-1.08.18-1.54.49-.74.48-1.19,1.31-1.19,2.2l-.02,4.02-3.35,2.57c-.44.34-.76.79-.94,1.32-.04.1-.07.22-.1.33-.31,1.38.42,2.69,1.7,3.06l3.86,1.16,1.21,4.3c.35,1.22,1.4,2.04,2.62,2.04.92,0,1.75-.46,2.28-1.26l2.54-3.88,4.56-.09c1.08-.01,2.04-.63,2.49-1.62.46-1.01.31-2.16-.41-3.02l-2.86-3.44,1.22-4.12c.16-.57.14-1.12-.06-1.6-.34-1.01-1.34-1.71-2.48-1.71-.36,0-.72.07-1.06.21l-3.91,1.59L13.56.4c-.4-.26-.86-.4-1.33-.4h0Z"/>
            </g>
            <path class="cls-6" d="M23.84,15.44l-4.99.1-2.77,4.24c-.95,1.43-2.98,1.1-3.45-.55l-1.33-4.72-4.29-1.29c-.92-.27-1.33-1.22-1.14-2.09.02-.09.04-.17.08-.25,1.99,1.31,5.97,3.26,10.43,1.67,4.58-1.63,6.44-6.95,7.13-9.81.13.32.14.69.03,1.08l-1.34,4.54,3.14,3.77c1.09,1.3.23,3.29-1.48,3.31Z"/>
            <path class="cls-7" d="M11.91,13.92s-5.01-1.08-5.42-2.22,4.35-4.05,4.48-4.35-.55-5.29.43-5.81,4.26,2.36,5.08,2.47,4.99-2.86,6.15-1.76-.89,6.31-.89,6.31c0,0,3.41,4.1,3.48,5.17s-5.97,1.35-6.86,1.44-2.36,5.03-3.84,4.87-2.61-6.13-2.61-6.13Z"/>
            <path class="cls-8" d="M10.88,4.37s-.27-2.86.92-2.88,4.14,2.4,4.8,2.45,4.39-1.92,5.38-1.92,1.03,1.1,1.03,1.1c0,0-.32-.41-1.12-.5s-4,2.08-5.22,2.15-3.29-2.29-4.62-2.52-1.17,2.13-1.17,2.13Z"/>
            <ellipse class="cls-5" cx="14.48" cy="3.72" rx=".73" ry="1.42" transform="translate(2.65 12.85) rotate(-52.08)"/>
            <ellipse class="cls-4" cx="13.07" cy="4.32" rx=".4" ry=".63" transform="translate(1.63 11.98) rotate(-52.08)"/>
            <path class="cls-2" d="M11.91,13.92s1.04,5.06,1.74,5.83,1.65.41,2.61-1.24,2.16-3.48,2.25-3.48,5.23,0,6.13-.36.69-1.75.5-2.16-3.24-4.08-3.24-4.08"/>
          </g>
          <g>
            <g>
              <path class="cls-13" d="M6.79,29.44c-.29,0-.57-.1-.8-.28l-1.61-1.25-1.98.64c-.14.04-.28.07-.42.07-.42,0-.81-.21-1.04-.55-.24-.36-.28-.81-.1-1.22l.78-1.84-1.02-1.49c-.35-.5-.24-1.19.27-1.6.06-.04.11-.08.16-.11.19-.12.43-.19.69-.19l1.91.05,1.14-1.4c.23-.29.58-.46.96-.46.01,0,.12,0,.13,0,.49.03.91.35,1.06.8l.53,1.65,1.81.54c.35.1.62.33.78.65.15.3.17.65.06.96-.06.21-.22.42-.44.58l-1.59,1.1.03,2c0,.36-.13.7-.38.96-.25.25-.59.4-.94.4Z"/>
              <path class="cls-12" d="M5.73,20.21s.06,0,.09,0c.31.02.61.21.72.53l.59,1.85,2.01.6c.5.15.73.66.58,1.08-.05.15-.15.28-.29.39l-1.76,1.22.04,2.22c0,.55-.43.94-.91.94-.19,0-.38-.06-.55-.19l-1.79-1.38-2.18.71c-.1.03-.2.05-.29.05-.6,0-1.03-.6-.77-1.22l.87-2.04-1.15-1.67c-.25-.36-.13-.81.19-1.06.03-.02.06-.05.1-.07.14-.09.31-.15.49-.15,0,0,.01,0,.02,0l2.09.05,1.26-1.55c.17-.21.41-.31.65-.31M5.73,19.4h0c-.5,0-.97.22-1.28.61l-1.01,1.24-1.69-.04h0c-.36,0-.67.09-.94.26-.06.03-.11.07-.17.12-.69.55-.84,1.48-.36,2.16l.89,1.3-.7,1.63c-.23.54-.18,1.14.14,1.61.31.46.82.73,1.38.73.18,0,.36-.03.54-.08l1.78-.58,1.45,1.12c.3.24.66.36,1.04.36.46,0,.9-.19,1.22-.52.33-.33.5-.77.49-1.25l-.03-1.79,1.41-.97c.3-.22.51-.5.61-.82.14-.37.11-.83-.09-1.23-.21-.41-.57-.72-1.03-.85l-1.6-.48-.46-1.45c-.2-.61-.76-1.04-1.43-1.09-.03,0-.09,0-.14,0h0Z"/>
            </g>
            <path class="cls-6" d="M6.24,28.84l-1.79-1.38-2.18.71c-.74.24-1.36-.46-1.06-1.17l.87-2.04-1.15-1.67c-.25-.36-.13-.81.19-1.06.03-.02.06-.05.1-.07.33,1.03,1.18,2.84,3.2,3.55,2.08.72,4.24-.62,5.29-1.43-.05.15-.15.28-.29.39l-1.76,1.22.04,2.22c.01.77-.85,1.22-1.46.75Z"/>
            <path class="cls-9" d="M2.47,24.92s-1.46-1.8-1.28-2.32,2.68-.19,2.81-.26,1.31-2.02,1.8-1.92.83,2.04,1.09,2.31,2.57.41,2.67,1.12-2.11,1.97-2.11,1.97c0,0,.04,2.41-.24,2.81s-2.49-1.22-2.83-1.44-2.26,1.11-2.74.63.82-2.9.82-2.9Z"/>
            <path class="cls-10" d="M4.81,21.27s.71-1.09,1.14-.76.78,2.02,1,2.23,2.09.57,2.44.85.05.68.05.68c0,0,0-.24-.25-.5s-2-.4-2.45-.72-.51-1.74-.91-2.2-1.01.42-1.01.42Z"/>
            <ellipse class="cls-1" cx="6.27" cy="22.06" rx=".33" ry=".64" transform="translate(-4.89 2.03) rotate(-13.26)"/>
            <ellipse class="cls-3" cx="5.6" cy="21.87" rx=".18" ry=".28" transform="translate(-4.87 1.87) rotate(-13.26)"/>
            <path class="cls-14" d="M2.47,24.92s-1.07,2.08-1.04,2.55.46.61,1.27.3,1.75-.61,1.78-.59,1.84,1.48,2.26,1.61.74-.42.79-.62.02-2.36.02-2.36"/>
          </g>
        </g>
      </g>
    </g>
  </g>
</svg>