<?xml version="1.0" encoding="UTF-8"?>
<svg xmlns="http://www.w3.org/2000/svg" xmlns:xlink="http://www.w3.org/1999/xlink" viewBox="0 0 27.67 16.57">
  <defs>
    <style>
      .cls-1 {
        mask: url(#mask);
      }

      .cls-2 {
        fill: #c75f22;
      }

      .cls-3 {
        fill: url(#_åçûìßííûé_ãðàäèåíò_156);
      }

      .cls-3, .cls-4, .cls-5, .cls-6, .cls-7 {
        mix-blend-mode: multiply;
      }

      .cls-4 {
        fill: #efa0bc;
        opacity: .51;
      }

      .cls-8 {
        fill: url(#_åçûìßííûé_ãðàäèåíò_102);
        opacity: .94;
      }

      .cls-8, .cls-9 {
        mix-blend-mode: overlay;
      }

      .cls-5 {
        fill: #a761cf;
      }

      .cls-10 {
        fill: url(#linear-gradient-3);
      }

      .cls-6 {
        fill: url(#linear-gradient-2);
      }

      .cls-11 {
        fill: url(#radial-gradient);
      }

      .cls-12 {
        fill: url(#linear-gradient);
      }

      .cls-13 {
        opacity: .09;
      }

      .cls-13, .cls-14 {
        fill: #fff;
      }

      .cls-15 {
        isolation: isolate;
      }

      .cls-16 {
        mask: url(#mask-1);
      }

      .cls-9 {
        fill: url(#linear-gradient-4);
      }

      .cls-17 {
        fill: #ffdf80;
      }
    </style>
    <radialGradient id="radial-gradient" cx="3.19" cy="3.54" fx="3.19" fy="3.54" r="21.88" gradientUnits="userSpaceOnUse">
      <stop offset="0" stop-color="#fffcd9"/>
      <stop offset=".59" stop-color="#ffe5ae"/>
      <stop offset="1" stop-color="#ff77d6"/>
    </radialGradient>
    <linearGradient id="linear-gradient" x1="0" y1="8.29" x2="16.57" y2="8.29" gradientUnits="userSpaceOnUse">
      <stop offset="0" stop-color="#ffb0da"/>
      <stop offset="1" stop-color="#b83cff"/>
    </linearGradient>
    <linearGradient id="linear-gradient-2" x1="9.92" y1="8.45" x2="11.98" y2="13.42" gradientUnits="userSpaceOnUse">
      <stop offset="0" stop-color="#efdca0"/>
      <stop offset=".09" stop-color="#ebd6a2" stop-opacity=".95"/>
      <stop offset=".25" stop-color="#e2c6a8" stop-opacity=".83"/>
      <stop offset=".46" stop-color="#d4adb1" stop-opacity=".63"/>
      <stop offset=".72" stop-color="#bf8bbe" stop-opacity=".35"/>
      <stop offset="1" stop-color="#a761cf" stop-opacity="0"/>
    </linearGradient>
    <filter id="luminosity-noclip" x="1.33" y="-7536.8" width="11.24" height="32766" color-interpolation-filters="sRGB" filterUnits="userSpaceOnUse">
      <feFlood flood-color="#fff" result="bg"/>
      <feBlend in="SourceGraphic" in2="bg"/>
    </filter>
    <mask id="mask-1" x="1.33" y="-7536.8" width="11.24" height="32766" maskUnits="userSpaceOnUse"/>
    <linearGradient id="_åçûìßííûé_ãðàäèåíò_156" data-name="åçûìßííûé ãðàäèåíò 156" x1="-214.21" y1="-401.15" x2="-213.52" y2="-396.08" gradientTransform="translate(475.37 375.21) rotate(-27.25) scale(1.15 1.36)" gradientUnits="userSpaceOnUse">
      <stop offset="0" stop-color="#fff"/>
      <stop offset="1" stop-color="#000"/>
    </linearGradient>
    <mask id="mask" x="1.33" y=".89" width="11.24" height="8.19" maskUnits="userSpaceOnUse">
      <g class="cls-16">
        <path class="cls-3" d="M12.35,2.2c.85,1.66-.87,4.25-3.85,5.79-2.98,1.54-6.09,1.44-6.95-.22-.85-1.66.87-4.25,3.85-5.79,2.98-1.54,6.09-1.44,6.95.22Z"/>
      </g>
    </mask>
    <linearGradient id="_åçûìßííûé_ãðàäèåíò_102" data-name="åçûìßííûé ãðàäèåíò 102" x1="-214.21" y1="-401.15" x2="-213.52" y2="-396.08" gradientTransform="translate(475.37 375.21) rotate(-27.25) scale(1.15 1.36)" gradientUnits="userSpaceOnUse">
      <stop offset="0" stop-color="#fff"/>
      <stop offset="1" stop-color="#fff"/>
    </linearGradient>
    <linearGradient id="linear-gradient-3" x1="15.16" y1="13.92" x2="10.77" y2="10.57" gradientUnits="userSpaceOnUse">
      <stop offset=".03" stop-color="#efd38d" stop-opacity="0"/>
      <stop offset="1" stop-color="#b83cff"/>
    </linearGradient>
    <linearGradient id="linear-gradient-4" x1="24.63" y1="10.59" x2="24.67" y2="15.62" gradientUnits="userSpaceOnUse">
      <stop offset=".15" stop-color="#fff"/>
      <stop offset=".15" stop-color="#fff" stop-opacity=".98"/>
      <stop offset=".27" stop-color="#fff" stop-opacity=".69"/>
      <stop offset=".38" stop-color="#fff" stop-opacity=".44"/>
      <stop offset=".48" stop-color="#fff" stop-opacity=".25"/>
      <stop offset=".57" stop-color="#fff" stop-opacity=".11"/>
      <stop offset=".64" stop-color="#fff" stop-opacity=".03"/>
      <stop offset=".69" stop-color="#fff" stop-opacity="0"/>
    </linearGradient>
  </defs>
  <g class="cls-15">
    <g id="Layer_2" data-name="Layer 2">
      <g id="Layer_1-2" data-name="Layer 1">
        <g>
          <g>
            <path class="cls-11" d="M16.17,8.29v.02c0,.86-.14,1.7-.4,2.47-.42,1.27-1.16,2.41-2.12,3.3-.67.62-1.44,1.13-2.3,1.48-.94.4-1.99.62-3.07.62-.34,0-.68-.02-1.01-.07-.06,0-.12-.01-.18-.02h0c-.5-.08-.99-.2-1.46-.38-.96-.34-1.84-.87-2.58-1.53-.09-.08-.18-.17-.27-.25-1.47-1.43-2.38-3.44-2.38-5.64C.39,4.33,3.31,1.05,7.11.49c.38-.06.78-.09,1.18-.09,2.19,0,4.18.89,5.6,2.34.68.69,1.23,1.49,1.62,2.38,0,0,0,0,0,0,.43.97.66,2.04.66,3.16Z"/>
            <path class="cls-12" d="M8.29.39c2.19,0,4.18.89,5.6,2.34.68.69,1.23,1.49,1.62,2.38,0,0,0,0,0,0,.43.97.66,2.04.66,3.16v.02c0,.86-.14,1.7-.4,2.47-.42,1.27-1.16,2.41-2.12,3.3-.67.62-1.44,1.13-2.3,1.48-.94.4-1.99.62-3.07.62-.34,0-.68-.02-1.01-.07-.06,0-.12-.01-.18-.02h0c-.5-.08-.99-.2-1.46-.38-.96-.34-1.84-.87-2.58-1.53-.09-.08-.18-.17-.27-.25-1.47-1.43-2.38-3.44-2.38-5.64C.39,4.33,3.31,1.05,7.11.49c.38-.06.78-.09,1.18-.09M8.29,0c-.4,0-.82.03-1.24.1C3.03.7,0,4.22,0,8.29c0,2.25.89,4.36,2.5,5.93.1.09.19.18.29.26.8.71,1.72,1.25,2.71,1.61.46.17.96.3,1.53.39.01,0,.02,0,.03,0,.06,0,.13.02.19.02.32.04.68.07,1.04.07,1.12,0,2.2-.22,3.22-.65.88-.37,1.69-.89,2.41-1.56,1.02-.94,1.79-2.14,2.23-3.47.28-.84.42-1.71.42-2.59,0-1.15-.23-2.25-.68-3.29,0-.02-.01-.04-.02-.07-.4-.92-.97-1.76-1.7-2.49-1.56-1.59-3.65-2.46-5.88-2.46h0Z"/>
          </g>
          <path class="cls-6" d="M11.94,13.3c.08-.11.88-.71.61-1.65s-.23-.57-.17-1.18-.19-.25-.56-1.13-.41-1.13-.97-.98-.67,1.39.15,2.05.79,1.06.57,1.45-1.37.11-1.52.85,1.16,1.28,1.16,1.28"/>
          <g>
            <path class="cls-4" d="M16.17,8.3c0,.86-.14,1.69-.4,2.47-.75-.12-.84-.8-.89-1.38-.06-.61-.22-.76-.56-.57,0,.1.01.2.01.3.03.37-.07.72-.16,1.07-.02.03-.03.07-.04.11.07.06.14.11.2.17.28.27.5.58.23.96-.25.35-.57.34-.91.16-.06.03-.13.05-.2.05-.67-.43-.79-1.15-.87-1.84-.04-.38-.07-.71-.34-1.01-.3-.34-.32-.76-.25-1.22-.33,0-.63.23-.93.13-.63-.22-.96.12-1.42.51-.89.78-.79,1.76-.81,2.74,0,.21.09.41.11.62.06.63-.16,1.08-.8,1.29-.38.13-.76.23-1.15.29-.88.14-1.17-.2-.95-1.07.04-.15.12-.29.13-.45-.31,1.18-.81,1.54-1.69,1.23-.81-.29-1-.88-.56-1.94-.73,0-1.31-.31-1.76-.86-.29-.36-.51-.77-.43-1.24.09-.54.03-1.07-.2-1.54-.61-1.26.07-2.29.56-3.36.08-.19.26-.34.25-.57.18-.34.46-.59.78-.8.5-.14.83-.56,1.26-.82h-.01c.36-.16.75-.23,1.14-.28.46-.06.97-.07,1.12.46.14.5-.28.77-.68.92-.57.2-.79.56-.74,1.14.08.99.63,1.28,1.46.76.47-.29.88-.61,1.19-1.11.49-.81,1.52-1.09,2.35-.66.74.39,1.5.6,2.33.59.82.07,1.17.36,1.17,1.13,0,.46.03.79.57.94.36.1.53.41.39.8-.05.03-.08.06-.12.09.73.44,1.04,1.24,1.63,1.81Z"/>
            <path class="cls-4" d="M13.65,14.07c-.67.62-1.44,1.12-2.29,1.48h0c-.2-.13-.26-.35-.16-.66.17-.71.7-1.09,1.28-1.43.53-.02.94.15,1.18.6Z"/>
            <path class="cls-4" d="M8.05,14c-.49.06-.79.33-.82.86-.03.5.29.71.73.76.41.05,1.18-.56,1.14-.93-.06-.61-.61-.55-1.05-.69Z"/>
            <path class="cls-4" d="M10.25,10.78c-.31,0-.54.12-.54.44,0,.4.3.52.65.52.32,0,.48-.18.5-.49-.05-.36-.29-.47-.62-.47Z"/>
            <path class="cls-4" d="M8.12,2.22c.29-.01.62-.02.65-.41.02-.31-.25-.37-.5-.37-.31,0-.61.11-.65.45-.05.37.28.3.5.33Z"/>
            <path class="cls-4" d="M12,2.85c.26-.04.42.34.77.17-.21-.52-.63-.73-1.13-.78-.18-.02-.15.16-.11.29.16.11.32.21.48.32Z"/>
            <path class="cls-4" d="M7.27,16.11c-.06,0-.12-.01-.18-.02h0c-.5-.08-.99-.2-1.46-.38-.96-.34-1.84-.87-2.58-1.53-.09-.08-.18-.17-.27-.25.14-.27.37-.51.72-.31.66.38.57.12,1.66.1,1.09-.02,1.09-.1,1.4.42.32.52-.29.43.09.93.37.48.77.71.62,1.04Z"/>
          </g>
          <g>
            <g class="cls-1">
              <path class="cls-8" d="M12.35,2.2c.85,1.66-.87,4.25-3.85,5.79-2.98,1.54-6.09,1.44-6.95-.22-.85-1.66.87-4.25,3.85-5.79,2.98-1.54,6.09-1.44,6.95.22Z"/>
            </g>
            <path class="cls-14" d="M9.06,1.71c.18.36-.77,1.21-2.12,1.91-1.35.7-2.6.97-2.78.62-.18-.36.77-1.21,2.12-1.91,1.35-.7,2.6-.97,2.78-.62Z"/>
          </g>
          <g>
            <path class="cls-5" d="M10.28,4.4c0,.13-.11.24-.24.24s-.24-.11-.24-.24.11-.24.24-.24.24.11.24.24Z"/>
            <path class="cls-5" d="M6.63,7.47c0,.13-.11.24-.24.24s-.24-.11-.24-.24.11-.24.24-.24.24.11.24.24Z"/>
            <path class="cls-5" d="M1.08,10.61c-.04-.2.09-.39.29-.43.2-.04.39.09.43.29.04.2-.09.39-.29.43-.2.04-.39-.09-.43-.29Z"/>
            <path class="cls-5" d="M12.98,8.48c0,.13-.11.24-.24.24s-.24-.11-.24-.24.11-.24.24-.24.24.11.24.24Z"/>
            <path class="cls-5" d="M13.36,13.63c0,.13-.11.24-.24.24s-.24-.11-.24-.24.11-.24.24-.24.24.11.24.24Z"/>
            <path class="cls-5" d="M9.09,15.59c0,.13-.11.24-.24.24s-.24-.11-.24-.24.11-.24.24-.24.24.11.24.24Z"/>
            <path class="cls-5" d="M14.82,7.91c0,.13-.1.23-.23.23s-.23-.1-.23-.23.1-.23.23-.23.23.1.23.23Z"/>
            <path class="cls-5" d="M13.77,12.71c0,.13-.1.23-.23.23s-.23-.1-.23-.23.1-.23.23-.23.23.1.23.23Z"/>
            <path class="cls-5" d="M10.12,3.82s-.04.09-.09.09-.09-.04-.09-.09.04-.09.09-.09.09.04.09.09Z"/>
            <path class="cls-5" d="M5.58,5.35s-.04.09-.09.09-.09-.04-.09-.09.04-.09.09-.09.09.04.09.09Z"/>
            <path class="cls-5" d="M4.31,9.37s-.04.09-.09.09-.09-.04-.09-.09.04-.09.09-.09.09.04.09.09Z"/>
            <path class="cls-5" d="M1.99,11.41c0,.09-.07.16-.16.16s-.16-.07-.16-.16.07-.16.16-.16.16.07.16.16Z"/>
            <path class="cls-5" d="M6.03,12.64c0,.09-.07.16-.16.16s-.16-.07-.16-.16.07-.16.16-.16.16.07.16.16Z"/>
            <circle class="cls-5" cx="8.99" cy="12.64" r=".16"/>
            <path class="cls-5" d="M13.55,8.41s-.04.09-.09.09-.09-.04-.09-.09.04-.09.09-.09.09.04.09.09Z"/>
            <path class="cls-5" d="M7.62,9.89s-.04.09-.09.09-.09-.04-.09-.09.04-.09.09-.09.09.04.09.09Z"/>
            <path class="cls-5" d="M11.73,1.5s-.04.09-.09.09-.09-.04-.09-.09.04-.09.09-.09.09.04.09.09Z"/>
            <path class="cls-5" d="M12.5,8.8s-.04.09-.09.09-.09-.04-.09-.09.04-.09.09-.09.09.04.09.09Z"/>
            <path class="cls-5" d="M15.49,8.89s-.04.09-.09.09-.09-.04-.09-.09.04-.09.09-.09.09.04.09.09Z"/>
            <path class="cls-5" d="M11.33,11.17s-.04.09-.09.09-.09-.04-.09-.09.04-.09.09-.09.09.04.09.09Z"/>
            <path class="cls-5" d="M13.94,11.26s-.04.09-.09.09-.09-.04-.09-.09.04-.09.09-.09.09.04.09.09Z"/>
            <path class="cls-5" d="M10.2,14.15s-.04.09-.09.09-.09-.04-.09-.09.04-.09.09-.09.09.04.09.09Z"/>
            <path class="cls-5" d="M10.76,4.09s-.02.04-.04.04-.04-.02-.04-.04.02-.04.04-.04.04.02.04.04Z"/>
            <path class="cls-5" d="M11.3,1.58s-.02.04-.04.04-.04-.02-.04-.04.02-.04.04-.04.04.02.04.04Z"/>
            <path class="cls-5" d="M9.66,4.19s-.02.04-.04.04-.04-.02-.04-.04.02-.04.04-.04.04.02.04.04Z"/>
          </g>
          <g>
            <path class="cls-13" d="M10.63,9.28c0,.13-.1.23-.23.23s-.23-.1-.23-.23.1-.23.23-.23.23.1.23.23Z"/>
            <path class="cls-13" d="M10.76,5.72c0,.13-.1.23-.23.23s-.23-.1-.23-.23.1-.23.23-.23.23.1.23.23Z"/>
            <path class="cls-13" d="M5.94,10.87c0,.13-.1.23-.23.23s-.23-.1-.23-.23.1-.23.23-.23.23.1.23.23Z"/>
            <path class="cls-13" d="M6.3,9.76s-.03.07-.07.07-.07-.03-.07-.07.03-.07.07-.07.07.03.07.07Z"/>
            <path class="cls-13" d="M3.25,11.1s-.03.07-.07.07-.07-.03-.07-.07.03-.07.07-.07.07.03.07.07Z"/>
            <path class="cls-13" d="M4.11,12.74s-.03.07-.07.07-.07-.03-.07-.07.03-.07.07-.07.07.03.07.07Z"/>
            <circle class="cls-13" cx="3.66" cy="10.52" r=".19"/>
            <path class="cls-13" d="M11.19,9.96c0,.07-.06.13-.13.13s-.13-.06-.13-.13.06-.13.13-.13.13.06.13.13Z"/>
            <path class="cls-13" d="M10.66,9.74c0,.07-.06.13-.13.13s-.13-.06-.13-.13.06-.13.13-.13.13.06.13.13Z"/>
            <path class="cls-13" d="M11.64,4.36c0,.07-.06.13-.13.13s-.13-.06-.13-.13.06-.13.13-.13.13.06.13.13Z"/>
            <path class="cls-13" d="M10.07,3.16c0,.07-.06.13-.13.13s-.13-.06-.13-.13.06-.13.13-.13.13.06.13.13Z"/>
            <path class="cls-13" d="M11.21,1.4c0,.07-.06.13-.13.13s-.13-.06-.13-.13.06-.13.13-.13.13.06.13.13Z"/>
            <path class="cls-13" d="M13.18,8.59c0,.07-.06.13-.13.13s-.13-.06-.13-.13.06-.13.13-.13.13.06.13.13Z"/>
          </g>
          <g class="cls-7">
            <path class="cls-10" d="M15.51,5.12c.07.45.11.92.11,1.4,0,5.1-4.13,9.22-9.22,9.22-.26,0-.51-.01-.76-.03.46.17.95.29,1.46.37h0c.39.06.79.09,1.2.09,1.08,0,2.13-.22,3.07-.62.85-.36,1.63-.86,2.3-1.48.96-.89,1.7-2.03,2.12-3.3.26-.77.4-1.61.4-2.47v-.02c0-1.13-.24-2.2-.66-3.16Z"/>
          </g>
        </g>
        <g>
          <g>
            <path class="cls-17" d="M24.65,16.06c-.06,0-.12-.04-.14-.1-.56-1.65-.97-2.07-2.63-2.63-.06-.02-.1-.08-.1-.14s.04-.12.1-.14c1.65-.56,2.07-.97,2.63-2.63.02-.06.08-.1.14-.1s.12.04.14.1c.56,1.65.97,2.07,2.63,2.63.06.02.1.08.1.14s-.04.12-.1.14c-1.65.56-2.07.97-2.63,2.63-.02.06-.08.1-.14.1Z"/>
            <path class="cls-2" d="M24.65,10.47c.57,1.69,1.03,2.15,2.72,2.72-1.69.57-2.15,1.03-2.72,2.72-.57-1.69-1.03-2.15-2.72-2.72,1.69-.57,2.15-1.03,2.72-2.72M24.65,10.17c-.13,0-.24.08-.28.2-.54,1.59-.94,1.99-2.53,2.53-.12.04-.2.15-.2.28s.08.24.2.28c1.59.54,1.99.94,2.53,2.53.04.12.15.2.28.2s.24-.08.28-.2c.54-1.59.94-1.99,2.53-2.53.12-.04.2-.15.2-.28s-.08-.24-.2-.28c-1.59-.54-1.99-.94-2.53-2.53-.04-.12-.15-.2-.28-.2h0Z"/>
          </g>
          <path class="cls-9" d="M26.82,13.19c-1.35.45-1.71.82-2.17,2.17-.45-1.35-.82-1.71-2.17-2.17,1.35-.45,1.71-.82,2.17-2.17.45,1.35.82,1.71,2.17,2.17Z"/>
        </g>
      </g>
    </g>
  </g>
</svg>