<?xml version="1.0" encoding="UTF-8"?>
<svg xmlns="http://www.w3.org/2000/svg" xmlns:xlink="http://www.w3.org/1999/xlink" viewBox="0 0 94.09 16.48">
  <defs>
    <style>
      .cls-1 {
        fill: #c75f22;
      }

      .cls-2 {
        fill: url(#linear-gradient-8);
      }

      .cls-3 {
        fill: url(#linear-gradient-5);
      }

      .cls-4 {
        fill: url(#linear-gradient-9);
      }

      .cls-5 {
        fill: url(#linear-gradient-4);
      }

      .cls-6 {
        fill: url(#linear-gradient-3);
      }

      .cls-7 {
        fill: #202020;
      }

      .cls-7, .cls-8, .cls-9, .cls-10, .cls-11, .cls-12 {
        mix-blend-mode: overlay;
      }

      .cls-13 {
        isolation: isolate;
      }

      .cls-8 {
        fill: url(#linear-gradient);
      }

      .cls-14 {
        fill: #ff5c97;
      }

      .cls-9 {
        fill: url(#linear-gradient-2);
      }

      .cls-10 {
        fill: url(#linear-gradient-6);
      }

      .cls-11 {
        fill: url(#linear-gradient-7);
      }

      .cls-15 {
        fill: #fff645;
      }

      .cls-16 {
        fill: #ffdf80;
      }

      .cls-12 {
        fill: url(#linear-gradient-11);
      }

      .cls-17 {
        fill: url(#linear-gradient-10);
      }
    </style>
    <linearGradient id="linear-gradient" x1="4.72" y1="2.07" x2="7.55" y2="7.5" gradientUnits="userSpaceOnUse">
      <stop offset=".58" stop-color="#fff"/>
      <stop offset="1" stop-color="#f7f7f7" stop-opacity="0"/>
    </linearGradient>
    <linearGradient id="linear-gradient-2" x1="7.18" y1="1.62" x2="7.87" y2="5.29" gradientUnits="userSpaceOnUse">
      <stop offset=".48" stop-color="#fff"/>
      <stop offset="1" stop-color="#f7f7f7" stop-opacity="0"/>
    </linearGradient>
    <linearGradient id="linear-gradient-3" x1="376.18" y1="-397.62" x2="376.44" y2="-396.26" gradientTransform="translate(-391.82 -373.91) rotate(90)" xlink:href="#linear-gradient-2"/>
    <linearGradient id="linear-gradient-4" x1="375.73" y1="-396.79" x2="375.87" y2="-396.07" gradientTransform="translate(-391.86 -373.09) rotate(90)" xlink:href="#linear-gradient-2"/>
    <linearGradient id="linear-gradient-5" x1="9.63" y1="11.17" x2="7.58" y2="7.95" gradientUnits="userSpaceOnUse">
      <stop offset=".13" stop-color="#fffda1"/>
      <stop offset="1" stop-color="#f7c82f" stop-opacity="0"/>
    </linearGradient>
    <linearGradient id="linear-gradient-6" x1="287.41" y1="8.86" x2="289.21" y2="12.32" gradientTransform="translate(-192.02 -49.52) rotate(10.06)" xlink:href="#linear-gradient"/>
    <linearGradient id="linear-gradient-7" x1="288.98" y1="8.58" x2="289.42" y2="10.92" gradientTransform="translate(-192.02 -49.52) rotate(10.06)" xlink:href="#linear-gradient-2"/>
    <linearGradient id="linear-gradient-8" x1="603.02" y1="-565.79" x2="603.19" y2="-564.93" gradientTransform="translate(-475.71 -593.37) rotate(90)" xlink:href="#linear-gradient-2"/>
    <linearGradient id="linear-gradient-9" x1="602.74" y1="-565.27" x2="602.82" y2="-564.81" gradientTransform="translate(-475.77 -592.95) rotate(90)" xlink:href="#linear-gradient-2"/>
    <linearGradient id="linear-gradient-10" x1="290.54" y1="14.66" x2="289.23" y2="12.61" gradientTransform="translate(-192.02 -49.52) rotate(10.06)" xlink:href="#linear-gradient-5"/>
    <linearGradient id="linear-gradient-11" x1="54.98" y1="6.89" x2="55.02" y2="11.93" gradientUnits="userSpaceOnUse">
      <stop offset=".15" stop-color="#fff"/>
      <stop offset=".15" stop-color="#fff" stop-opacity=".98"/>
      <stop offset=".27" stop-color="#fff" stop-opacity=".69"/>
      <stop offset=".38" stop-color="#fff" stop-opacity=".44"/>
      <stop offset=".48" stop-color="#fff" stop-opacity=".25"/>
      <stop offset=".57" stop-color="#fff" stop-opacity=".11"/>
      <stop offset=".64" stop-color="#fff" stop-opacity=".03"/>
      <stop offset=".69" stop-color="#fff" stop-opacity="0"/>
    </linearGradient>
  </defs>
  <g class="cls-13">
    <g id="Layer_2" data-name="Layer 2">
      <g id="Layer_1-2" data-name="Layer 1">
        <g>
          <g>
            <path class="cls-15" d="M5.79,12.9c-.63,0-1.18-.43-1.37-1.07l-.78-2.76-2.5-.75c-.65-.19-1.02-.86-.87-1.57.02-.08.04-.14.06-.19.09-.26.26-.51.49-.68l2.15-1.64V1.65c.01-.46.25-.89.64-1.15.23-.16.52-.25.8-.25.24,0,.48.07.68.2l2.09,1.38,2.51-1.02c.18-.07.37-.11.55-.11.59,0,1.11.36,1.29.91.09.23.1.51.03.8l-.79,2.65,1.84,2.21c.38.45.46,1.06.21,1.59-.24.51-.74.84-1.31.85l-2.92.06-1.63,2.48c-.28.42-.71.66-1.19.66Z"/>
            <path class="cls-14" d="M4.42.49c.19,0,.37.05.54.16l2.2,1.45,2.63-1.07c.16-.06.31-.09.46-.09.49,0,.91.31,1.06.74.08.2.09.42.02.66l-.82,2.78,1.92,2.31c.66.8.14,2.01-.91,2.03l-3.05.06-1.7,2.59c-.25.38-.62.55-.98.55-.49,0-.96-.31-1.13-.89l-.82-2.89-2.63-.79c-.57-.16-.82-.74-.7-1.28.01-.05.03-.11.05-.15.07-.22.21-.43.41-.59l2.24-1.72V1.65c.01-.4.23-.74.53-.94.19-.14.43-.21.66-.21M4.42,0c-.33,0-.66.11-.94.3-.45.29-.73.8-.73,1.35v2.46s-2.06,1.57-2.06,1.57c-.27.21-.47.49-.58.82-.02.03-.04.11-.06.19-.19.85.26,1.64,1.04,1.87l2.36.71.74,2.63c.21.75.86,1.25,1.6,1.25.56,0,1.07-.28,1.4-.77l1.56-2.38,2.79-.05c.66,0,1.25-.39,1.53-.99.28-.62.19-1.32-.25-1.85l-1.75-2.11.75-2.52c.1-.35.08-.68-.03-.98-.21-.62-.82-1.05-1.52-1.05-.22,0-.44.04-.65.13l-2.39.97L5.23.24c-.24-.16-.52-.24-.82-.24h0Z"/>
          </g>
          <path class="cls-7" d="M11.52,9.45l-3.05.06-1.7,2.59c-.58.88-1.82.67-2.11-.34l-.82-2.89-2.63-.79c-.57-.16-.82-.74-.7-1.28.01-.05.03-.11.05-.15,1.22.8,3.65,1.99,6.38,1.02,2.8-1,3.94-4.25,4.36-6,.08.2.09.42.02.66l-.82,2.78,1.92,2.31c.66.8.14,2.01-.91,2.03Z"/>
          <path class="cls-8" d="M4.23,8.51s-3.07-.66-3.32-1.36,2.66-2.48,2.74-2.66-.34-3.23.27-3.56,2.6,1.44,3.11,1.51,3.05-1.75,3.77-1.08-.55,3.86-.55,3.86c0,0,2.09,2.51,2.13,3.16s-3.65.83-4.2.88-1.44,3.08-2.35,2.98-1.6-3.75-1.6-3.75Z"/>
          <path class="cls-9" d="M3.6,2.68s-.17-1.75.56-1.76,2.53,1.47,2.94,1.5,2.69-1.18,3.29-1.18.63.67.63.67c0,0-.2-.25-.69-.31s-2.45,1.27-3.19,1.32-2.02-1.4-2.83-1.54-.71,1.3-.71,1.3Z"/>
          <ellipse class="cls-6" cx="5.8" cy="2.27" rx=".45" ry=".87" transform="translate(.44 5.45) rotate(-52.08)"/>
          <ellipse class="cls-5" cx="4.93" cy="2.64" rx=".24" ry=".38" transform="translate(-.18 4.91) rotate(-52.08)"/>
          <path class="cls-3" d="M4.23,8.51s.63,3.1,1.06,3.57,1.01.25,1.6-.76,1.32-2.13,1.38-2.13,3.2,0,3.75-.22.42-1.07.3-1.32-1.98-2.5-1.98-2.5"/>
        </g>
        <g>
          <g>
            <path class="cls-15" d="M89.05,16.32c-.46,0-.84-.35-.89-.83l-.18-1.82-1.48-.75c-.39-.19-.54-.66-.37-1.08.02-.04.04-.08.06-.12.08-.15.22-.29.38-.37l1.53-.79.29-1.62c.05-.29.25-.53.52-.65.12-.05.25-.08.38-.08.21,0,.4.08.55.21l1.16,1.1,1.69-.36c.07-.01.13-.02.2-.02.43,0,.8.31.87.73.03.16,0,.33-.07.51l-.79,1.58.91,1.59c.17.3.17.66,0,.95-.17.29-.47.46-.8.46-.05,0-.1,0-.16-.01l-1.84-.29-1.29,1.38c-.18.19-.42.3-.67.3Z"/>
            <path class="cls-14" d="M89.3,8.37c.16,0,.32.05.44.17l1.22,1.15,1.77-.38c.06-.01.11-.02.17-.02.37,0,.66.26.71.59.03.13,0,.27-.06.41l-.82,1.65.95,1.66c.31.53-.08,1.18-.66,1.18-.04,0-.09,0-.13-.01l-1.92-.3-1.35,1.44c-.16.17-.36.25-.55.25-.35,0-.69-.26-.73-.69l-.19-1.9-1.56-.79c-.34-.17-.43-.56-.3-.88.01-.03.03-.06.05-.09.07-.13.18-.24.32-.32l1.6-.83.31-1.69c.04-.25.22-.44.43-.53.1-.05.21-.07.32-.07M89.3,8.06c-.15,0-.31.03-.45.1-.32.13-.55.42-.61.76l-.28,1.54-1.46.76c-.19.1-.35.26-.46.45-.01.02-.04.06-.06.11-.21.51-.02,1.06.44,1.29l1.4.71.17,1.73c.06.57.5.98,1.05.98.29,0,.57-.12.78-.35l1.24-1.32,1.76.28c.06.01.12.01.18.01.39,0,.74-.2.93-.54.2-.35.2-.76,0-1.11l-.86-1.51.75-1.5c.1-.21.13-.42.09-.62-.07-.47-.51-.84-1.02-.84-.08,0-.16,0-.24.03l-1.61.34-1.1-1.04c-.18-.17-.41-.26-.66-.26h0Z"/>
          </g>
          <path class="cls-7" d="M92.87,14.78l-1.92-.3-1.35,1.44c-.46.48-1.22.22-1.29-.45l-.19-1.9-1.56-.79c-.34-.17-.43-.56-.3-.88.01-.03.03-.06.05-.09.67.64,2.07,1.66,3.89,1.35,1.87-.32,2.94-2.23,3.4-3.28.03.13,0,.27-.06.41l-.82,1.65.95,1.66c.33.57-.14,1.28-.79,1.17Z"/>
          <path class="cls-10" d="M88.4,13.39s-1.85-.75-1.93-1.22,1.94-1.26,2.02-1.36.15-2.06.56-2.2,1.47,1.19,1.78,1.29,2.11-.76,2.48-.26-.77,2.36-.77,2.36c0,0,1.03,1.8.98,2.22s-2.38.11-2.73.09-1.25,1.77-1.81,1.61-.58-2.53-.58-2.53Z"/>
          <path class="cls-11" d="M88.66,9.66s.09-1.12.55-1.04,1.42,1.2,1.68,1.27,1.82-.44,2.19-.37.32.49.32.49c0,0-.09-.18-.4-.27s-1.68.53-2.15.47-1.11-1.1-1.6-1.28-.59.74-.59.74Z"/>
          <ellipse class="cls-2" cx="90.08" cy="9.65" rx=".29" ry=".55" transform="translate(16.7 62.79) rotate(-42.03)"/>
          <ellipse class="cls-4" cx="89.5" cy="9.79" rx=".16" ry=".24" transform="translate(16.46 62.43) rotate(-42.03)"/>
          <path class="cls-17" d="M88.4,13.39s.05,2.01.27,2.36.6.27,1.08-.3,1.07-1.19,1.1-1.18,2.01.36,2.37.28.38-.62.34-.8-.97-1.79-.97-1.79"/>
        </g>
        <g>
          <g>
            <path class="cls-16" d="M55,12.36c-.06,0-.12-.04-.14-.1-.56-1.65-.97-2.07-2.63-2.63-.06-.02-.1-.08-.1-.14s.04-.12.1-.14c1.65-.56,2.07-.98,2.63-2.63.02-.06.08-.1.14-.1s.12.04.14.1c.56,1.65.97,2.07,2.63,2.63.06.02.1.08.1.14s-.04.12-.1.14c-1.65.56-2.07.97-2.63,2.63-.02.06-.08.1-.14.1h0Z"/>
            <path class="cls-1" d="M55,6.77c.57,1.69,1.03,2.15,2.72,2.72-1.69.57-2.15,1.03-2.72,2.72-.57-1.69-1.03-2.15-2.72-2.72,1.69-.57,2.15-1.03,2.72-2.72M55,6.48c-.13,0-.24.08-.28.2-.54,1.59-.94,1.99-2.53,2.53-.12.04-.2.15-.2.28s.08.24.2.28c1.59.54,1.99.94,2.53,2.53.04.12.15.2.28.2s.24-.08.28-.2c.54-1.59.94-1.99,2.53-2.53.12-.04.2-.15.2-.28s-.08-.24-.2-.28c-1.59-.54-1.99-.94-2.53-2.53-.04-.12-.15-.2-.28-.2h0Z"/>
          </g>
          <path class="cls-12" d="M57.17,9.49c-1.35.45-1.71.82-2.17,2.17-.45-1.35-.82-1.71-2.17-2.17,1.35-.45,1.71-.82,2.17-2.17.45,1.35.82,1.71,2.17,2.17Z"/>
        </g>
      </g>
    </g>
  </g>
</svg>