<?xml version="1.0" encoding="UTF-8"?>
<svg xmlns="http://www.w3.org/2000/svg" xmlns:xlink="http://www.w3.org/1999/xlink" viewBox="0 0 70.35 15.73">
  <defs>
    <style>
      .cls-1 {
        fill: #c75f22;
      }

      .cls-2 {
        fill: url(#linear-gradient-8);
      }

      .cls-3 {
        fill: url(#linear-gradient-5);
      }

      .cls-4 {
        fill: url(#linear-gradient-9);
      }

      .cls-5 {
        fill: url(#linear-gradient-4);
      }

      .cls-6 {
        fill: url(#linear-gradient-3);
      }

      .cls-7 {
        fill: #202020;
      }

      .cls-7, .cls-8, .cls-9, .cls-10, .cls-11, .cls-12 {
        mix-blend-mode: overlay;
      }

      .cls-13 {
        isolation: isolate;
      }

      .cls-8 {
        fill: url(#linear-gradient);
      }

      .cls-14 {
        fill: #ff5c97;
      }

      .cls-9 {
        fill: url(#linear-gradient-2);
      }

      .cls-10 {
        fill: url(#linear-gradient-6);
      }

      .cls-11 {
        fill: url(#linear-gradient-7);
      }

      .cls-15 {
        fill: #fff645;
      }

      .cls-16 {
        fill: #ffdf80;
      }

      .cls-12 {
        fill: url(#linear-gradient-11);
      }

      .cls-17 {
        fill: url(#linear-gradient-10);
      }
    </style>
    <linearGradient id="linear-gradient" x1="651.67" y1="-119.92" x2="654.5" y2="-114.49" gradientTransform="translate(-568.09 -241.4) rotate(32.27)" gradientUnits="userSpaceOnUse">
      <stop offset=".58" stop-color="#fff"/>
      <stop offset="1" stop-color="#f7f7f7" stop-opacity="0"/>
    </linearGradient>
    <linearGradient id="linear-gradient-2" x1="654.14" y1="-120.36" x2="654.82" y2="-116.69" gradientTransform="translate(-568.09 -241.4) rotate(32.27)" gradientUnits="userSpaceOnUse">
      <stop offset=".48" stop-color="#fff"/>
      <stop offset="1" stop-color="#f7f7f7" stop-opacity="0"/>
    </linearGradient>
    <linearGradient id="linear-gradient-3" x1="761.03" y1="-941.03" x2="761.29" y2="-939.67" gradientTransform="translate(-893.29 -755.1) rotate(90)" xlink:href="#linear-gradient-2"/>
    <linearGradient id="linear-gradient-4" x1="760.58" y1="-940.2" x2="760.71" y2="-939.48" gradientTransform="translate(-893.39 -754.8) rotate(90)" xlink:href="#linear-gradient-2"/>
    <linearGradient id="linear-gradient-5" x1="656.59" y1="-110.81" x2="654.53" y2="-114.03" gradientTransform="translate(-568.09 -241.4) rotate(32.27)" gradientUnits="userSpaceOnUse">
      <stop offset=".13" stop-color="#fffda1"/>
      <stop offset="1" stop-color="#f7c82f" stop-opacity="0"/>
    </linearGradient>
    <linearGradient id="linear-gradient-6" x1="252.6" y1="-11.2" x2="254.4" y2="-7.74" gradientTransform="translate(-184.99 -31.74) rotate(10.06)" xlink:href="#linear-gradient"/>
    <linearGradient id="linear-gradient-7" x1="254.17" y1="-11.48" x2="254.61" y2="-9.15" gradientTransform="translate(-184.99 -31.74) rotate(10.06)" xlink:href="#linear-gradient-2"/>
    <linearGradient id="linear-gradient-8" x1="512.66" y1="-609.84" x2="512.82" y2="-608.98" gradientTransform="translate(-543.5 -511.06) rotate(90)" xlink:href="#linear-gradient-2"/>
    <linearGradient id="linear-gradient-9" x1="512.37" y1="-609.32" x2="512.45" y2="-608.86" gradientTransform="translate(-543.56 -510.64) rotate(90)" xlink:href="#linear-gradient-2"/>
    <linearGradient id="linear-gradient-10" x1="255.73" y1="-5.4" x2="254.42" y2="-7.45" gradientTransform="translate(-184.99 -31.74) rotate(10.06)" xlink:href="#linear-gradient-5"/>
    <linearGradient id="linear-gradient-11" x1="3" y1="6.77" x2="3.04" y2="11.81" gradientUnits="userSpaceOnUse">
      <stop offset=".15" stop-color="#fff"/>
      <stop offset=".15" stop-color="#fff" stop-opacity=".98"/>
      <stop offset=".27" stop-color="#fff" stop-opacity=".69"/>
      <stop offset=".38" stop-color="#fff" stop-opacity=".44"/>
      <stop offset=".48" stop-color="#fff" stop-opacity=".25"/>
      <stop offset=".57" stop-color="#fff" stop-opacity=".11"/>
      <stop offset=".64" stop-color="#fff" stop-opacity=".03"/>
      <stop offset=".69" stop-color="#fff" stop-opacity="0"/>
    </linearGradient>
  </defs>
  <g class="cls-13">
    <g id="Layer_2" data-name="Layer 2">
      <g id="Layer_1-2" data-name="Layer 1">
        <g>
          <g>
            <path class="cls-15" d="M49.38,15.48c-.27,0-.53-.08-.77-.22l-2.5-1.51-2.7,1.23c-.2.09-.41.14-.62.14-.44,0-.84-.2-1.11-.55-.27-.36-.35-.83-.22-1.29l.81-2.75-1.71-1.97c-.45-.51-.4-1.28.1-1.79.05-.05.1-.1.16-.13.21-.17.48-.29.78-.32l2.69-.24,1.39-2.18c.25-.39.67-.62,1.15-.63h0c.6,0,1.06.29,1.27.74l1.03,2.28,2.67.48c.4.07.74.29.95.62.2.31.27.69.19,1.04-.04.25-.19.49-.41.69l-2.08,1.82.38,2.85c.06.44-.07.86-.35,1.18-.28.32-.69.51-1.11.51Z"/>
            <path class="cls-14" d="M46.9,3.51c.41,0,.81.2.99.6l1.09,2.4,2.8.5c.7.12,1.08.78.94,1.36-.04.21-.15.4-.33.57l-2.18,1.91.39,2.98c.1.79-.52,1.41-1.21,1.41-.21,0-.43-.06-.64-.18l-2.61-1.58-2.82,1.29c-.18.08-.35.12-.52.12-.74,0-1.32-.71-1.09-1.53l.85-2.88-1.8-2.07c-.39-.44-.29-1.06.09-1.45.04-.04.08-.07.12-.1.18-.14.41-.25.66-.27l2.81-.25,1.46-2.28c.21-.34.58-.51.94-.52.02,0,.04,0,.06,0M46.9,3.02h-.08c-.54,0-1.05.29-1.34.75l-1.32,2.07-2.57.23c-.34.03-.67.17-.93.38-.03.02-.09.07-.15.13-.61.61-.66,1.53-.12,2.14l1.62,1.86-.78,2.62c-.16.54-.06,1.09.26,1.51.31.41.79.65,1.3.65.25,0,.49-.05.72-.16l2.58-1.18,2.39,1.45c.27.17.58.26.89.26.49,0,.96-.22,1.29-.59.33-.38.48-.87.41-1.38l-.36-2.72,1.98-1.73c.27-.24.44-.53.49-.85.1-.39.02-.84-.23-1.21-.25-.39-.65-.64-1.11-.73l-2.54-.45-.98-2.16c-.25-.55-.8-.89-1.44-.89h0Z"/>
          </g>
          <path class="cls-7" d="M48.75,15.05l-2.61-1.58-2.82,1.29c-.96.43-1.9-.41-1.61-1.41l.85-2.88-1.8-2.07c-.39-.44-.29-1.06.09-1.45.04-.04.08-.07.12-.1.6,1.33,2.02,3.64,4.85,4.27,2.9.65,5.6-1.49,6.89-2.74-.04.21-.15.4-.33.57l-2.18,1.91.39,2.98c.14,1.03-.96,1.78-1.85,1.23Z"/>
          <path class="cls-8" d="M43.07,10.37s-2.24-2.19-2.08-2.92,3.57-.67,3.74-.78,1.44-2.91,2.12-2.86,1.43,2.61,1.82,2.94,3.51.15,3.76,1.1-2.52,2.98-2.52,2.98c0,0,.43,3.23.11,3.81s-3.53-1.25-4.02-1.5-2.86,1.83-3.58,1.27.65-4.02.65-4.02Z"/>
          <path class="cls-9" d="M45.66,5.09s.79-1.57,1.42-1.19,1.36,2.6,1.69,2.84,2.9.44,3.41.76.17.9.17.9c0,0-.03-.32-.42-.63s-2.75-.23-3.4-.59-.96-2.26-1.57-2.81-1.3.72-1.3.72Z"/>
          <ellipse class="cls-6" cx="47.73" cy="5.93" rx=".45" ry=".87" transform="translate(.82 16.53) rotate(-19.81)"/>
          <ellipse class="cls-5" cx="46.81" cy="5.78" rx=".24" ry=".38" transform="translate(.81 16.2) rotate(-19.81)"/>
          <path class="cls-3" d="M43.07,10.37s-1.12,2.96-1.01,3.59.72.75,1.75.21,2.26-1.1,2.3-1.07,2.71,1.71,3.29,1.82.93-.68.96-.96-.34-3.17-.34-3.17"/>
        </g>
        <g>
          <g>
            <path class="cls-15" d="M65.3,8.26c-.46,0-.84-.35-.89-.83l-.18-1.82-1.48-.75c-.39-.19-.54-.66-.37-1.08.02-.04.04-.08.06-.11.08-.16.22-.29.38-.37l1.53-.79.29-1.62c.05-.29.25-.53.52-.65.12-.05.25-.08.38-.08.21,0,.4.08.55.21l1.16,1.09,1.69-.36c.07-.01.14-.02.2-.02.43,0,.8.31.87.73.03.16,0,.33-.07.51l-.79,1.58.91,1.59c.17.3.17.66,0,.95-.17.29-.47.46-.8.46-.05,0-.11,0-.16-.01l-1.84-.29-1.3,1.38c-.18.19-.42.3-.67.3Z"/>
            <path class="cls-14" d="M65.55.31c.16,0,.32.05.44.17l1.22,1.15,1.77-.38c.06-.01.11-.02.17-.02.37,0,.66.26.71.59.03.13,0,.27-.06.41l-.82,1.65.95,1.66c.31.53-.08,1.18-.66,1.18-.04,0-.09,0-.13-.01l-1.92-.3-1.35,1.44c-.16.17-.36.25-.55.25-.35,0-.69-.26-.73-.69l-.19-1.9-1.56-.79c-.34-.17-.43-.56-.3-.88.01-.03.03-.06.05-.09.07-.13.18-.24.32-.32l1.6-.83.31-1.69c.04-.25.22-.44.43-.53.1-.05.21-.07.32-.07M65.55,0c-.15,0-.31.03-.45.1-.32.13-.55.42-.61.76l-.28,1.54-1.46.76c-.19.1-.35.26-.46.45-.01.02-.04.06-.06.11-.21.51-.02,1.06.44,1.29l1.4.71.17,1.73c.06.57.5.98,1.05.98.29,0,.57-.12.78-.35l1.24-1.32,1.76.28c.06.01.12.01.18.01.39,0,.74-.2.93-.54.2-.35.2-.76,0-1.11l-.86-1.51.75-1.5c.1-.21.13-.42.09-.62-.07-.47-.51-.84-1.02-.84-.08,0-.16,0-.24.03l-1.61.34-1.1-1.04c-.18-.17-.41-.26-.66-.26h0Z"/>
          </g>
          <path class="cls-7" d="M69.13,6.73l-1.92-.3-1.35,1.44c-.46.48-1.22.22-1.29-.45l-.19-1.9-1.56-.79c-.34-.17-.43-.56-.3-.88.01-.03.03-.06.05-.09.67.64,2.07,1.66,3.89,1.35,1.87-.32,2.94-2.23,3.4-3.28.03.13,0,.27-.06.41l-.82,1.65.95,1.66c.33.57-.14,1.28-.79,1.17Z"/>
          <path class="cls-10" d="M64.66,5.33s-1.85-.75-1.93-1.22,1.94-1.26,2.02-1.36.15-2.06.56-2.2,1.47,1.19,1.78,1.29,2.11-.76,2.48-.26-.77,2.36-.77,2.36c0,0,1.03,1.8.98,2.22s-2.38.11-2.73.09-1.25,1.77-1.81,1.61-.58-2.53-.58-2.53Z"/>
          <path class="cls-11" d="M64.91,1.6s.09-1.12.55-1.04,1.42,1.2,1.68,1.27,1.82-.44,2.19-.37.32.49.32.49c0,0-.09-.18-.4-.27s-1.68.53-2.15.47-1.11-1.1-1.6-1.28-.59.74-.59.74Z"/>
          <ellipse class="cls-2" cx="66.34" cy="1.59" rx=".29" ry=".55" transform="translate(15.99 44.82) rotate(-42.03)"/>
          <ellipse class="cls-4" cx="65.75" cy="1.73" rx=".16" ry=".24" transform="translate(15.75 44.46) rotate(-42.03)"/>
          <path class="cls-17" d="M64.66,5.33s.05,2.01.27,2.36.6.27,1.08-.3,1.07-1.19,1.1-1.18,2.01.36,2.37.28.38-.62.34-.8-.97-1.79-.97-1.79"/>
        </g>
        <g>
          <g>
            <path class="cls-16" d="M3.02,12.24c-.06,0-.12-.04-.14-.1-.56-1.65-.97-2.07-2.63-2.63-.06-.02-.1-.08-.1-.14s.04-.12.1-.14c1.65-.56,2.07-.97,2.63-2.63.02-.06.08-.1.14-.1s.12.04.14.1c.56,1.65.97,2.07,2.63,2.63.06.02.1.08.1.14s-.04.12-.1.14c-1.65.56-2.07.97-2.63,2.63-.02.06-.08.1-.14.1Z"/>
            <path class="cls-1" d="M3.02,6.65c.57,1.69,1.03,2.15,2.72,2.72-1.69.57-2.15,1.03-2.72,2.72-.57-1.69-1.03-2.15-2.72-2.72,1.69-.57,2.15-1.03,2.72-2.72M3.02,6.36c-.13,0-.24.08-.28.2-.54,1.59-.94,1.99-2.53,2.53-.12.04-.2.15-.2.28s.08.24.2.28c1.59.54,1.99.94,2.53,2.53.04.12.15.2.28.2s.24-.08.28-.2c.54-1.59.94-1.99,2.53-2.53.12-.04.2-.15.2-.28s-.08-.24-.2-.28c-1.59-.54-2-.94-2.53-2.53-.04-.12-.15-.2-.28-.2h0Z"/>
          </g>
          <path class="cls-12" d="M5.19,9.37c-1.35.45-1.71.82-2.17,2.17-.45-1.35-.82-1.71-2.17-2.17,1.35-.45,1.71-.82,2.17-2.17.45,1.35.82,1.71,2.17,2.17Z"/>
        </g>
      </g>
    </g>
  </g>
</svg>