<?xml version="1.0" encoding="UTF-8"?>
<svg xmlns="http://www.w3.org/2000/svg" viewBox="0 0 24.89 23.96">
  <defs>
    <style>
      .cls-1 {
        fill: #fff;
        opacity: .5;
      }

      .cls-1, .cls-2, .cls-3 {
        mix-blend-mode: overlay;
      }

      .cls-4 {
        fill: #d0c2b5;
      }

      .cls-5 {
        isolation: isolate;
      }

      .cls-2, .cls-6 {
        fill: #ffebee;
      }

      .cls-7 {
        fill: #625c66;
      }

      .cls-3 {
        opacity: .3;
      }

      .cls-8 {
        fill: #332f36;
      }
    </style>
  </defs>
  <g class="cls-5">
    <g id="Layer_2" data-name="Layer 2">
      <g id="Layer_1-2" data-name="Layer 1">
        <g>
          <g>
            <path class="cls-7" d="M10.93,23.46c-.67,0-1.29-.17-1.87-.5-2.31-1.34-2.81-3.44-2.91-4.5-.16.02-.35.04-.56.04h0c-.86,0-2.14-.27-3.36-1.54-.39-.4-.76-.89-1.11-1.5-.67-1.17-.79-2.22-.37-3.14.6-1.29,2.13-1.9,2.98-2.15-.65-1.97-.96-5.36,1.76-7.02.76-.46,1.54-.7,2.33-.7s1.46.24,1.93.5c.47-.88,1.56-2.24,3.76-2.43.14-.01.29-.02.42-.02,3.35,0,4.77,3.44,5.18,4.71.34-.06.84-.12,1.39-.12,2.21,0,3.56.96,3.82,2.71.16,1.06.07,2.07-.26,3-.48,1.38-1.4,2.09-2.01,2.42.55.91,1.4,2.9.33,5.35-.93,2.13-3.36,2.57-5.24,2.57-.61,0-1.12-.05-1.44-.09-.12.12-.27.26-.46.43-.85.74-2.52,1.96-4.3,1.96Z"/>
            <path class="cls-8" d="M13.92,1c3.68,0,4.83,4.79,4.83,4.79,0,0,.79-.19,1.74-.19,1.35,0,3.05.39,3.32,2.28.17,1.15.01,2.06-.24,2.76-.67,1.94-2.3,2.37-2.3,2.37,0,0,1.97,2.3.63,5.37-.83,1.91-3.15,2.27-4.78,2.27-.77,0-1.38-.08-1.62-.12-.1.11-.31.32-.61.58,0,0,0,0-.01,0-.85.74-2.37,1.83-3.96,1.83-.54,0-1.09-.13-1.62-.43-2.89-1.68-2.67-4.69-2.67-4.69,0,0-.41.16-1.04.16-.79,0-1.91-.25-3-1.38-.36-.37-.71-.83-1.04-1.4-2.17-3.78,2.84-4.68,2.84-4.68,0,0-2.05-4.86,1.36-6.94.76-.47,1.46-.63,2.07-.63,1.06,0,1.83.49,2.14.72.2-.52,1.08-2.45,3.59-2.66.13-.01.26-.02.38-.02M13.92,0h0c-.15,0-.31,0-.47.02-2.11.18-3.29,1.35-3.91,2.28-.47-.2-1.06-.35-1.73-.35-.88,0-1.75.26-2.59.77-2.76,1.69-2.7,4.96-2.12,7.12-.95.34-2.23,1.02-2.81,2.26-.34.74-.55,1.96.39,3.59.38.65.77,1.17,1.19,1.6,1.34,1.39,2.76,1.68,3.72,1.68.05,0,.09,0,.13,0,.21,1.24.91,3.13,3.08,4.4.65.38,1.37.57,2.12.57,1.84,0,3.51-1.11,4.59-2.05.02-.01.03-.02.04-.03.11-.09.21-.19.31-.28.33.03.76.06,1.26.06,2.87,0,4.89-1.02,5.7-2.87,1-2.31.43-4.25-.13-5.38.64-.44,1.39-1.2,1.82-2.43.36-1.01.45-2.1.28-3.24-.29-1.99-1.86-3.13-4.31-3.13-.39,0-.75.03-1.05.06C18.86,3.09,17.29,0,13.92,0h0Z"/>
          </g>
          <path class="cls-3" d="M6.63,17.83s-.22,3.01,2.68,4.69c2.66,1.54,5.7-1.47,6.2-1.99.74.11,5.18.65,6.4-2.16,1.34-3.07-.63-5.36-.63-5.36,0,0,1.62-.44,2.3-2.37-.82.82-2.06,1.87-3.07,2.05-1.7.29-2.39-.04-3.27-1.34-.88-1.29-3.77-2.17-6.21-.84-2.44,1.33-2.71,3.66-2.79,4.48-.08.82-3.38,3.2-5.65,1.62,1.96,2.04,4.05,1.22,4.05,1.22Z"/>
          <path class="cls-1" d="M1.54,15.21c.34.57.68,1.04,1.04,1.4,1.96,2.04,4.05,1.22,4.05,1.22,0,0-.22,3.01,2.67,4.69,2.1,1.21,4.45-.41,5.58-1.4-1.01.59-3.01,1.5-4.91.91-2.72-.83-2.75-5.02-2.75-5.02,0,0-.56.43-1.86.42-1.29,0-4.15-2.57-3.34-4.44.81-1.87,3.53-2.17,3.59-2.16.06.01-2.58-4.51.08-6.08,2.66-1.57,5.01.53,5.01.53,0,0-.21-3.35,3.09-3.36,3.31,0,4.28,4.37,4.44,4.48.16.11,4.71-.66,4.74,2.29.04,2.95-2.98,4.17-2.98,4.17,0,0,2.39,2.24,1.2,5.02-1.19,2.77-5.7,2.64-5.7,2.64.74.12,5.18.65,6.4-2.15,1.33-3.07-.63-5.37-.63-5.37,0,0,1.62-.44,2.3-2.37.25-.7.41-1.61.24-2.76-.47-3.22-5.07-2.08-5.07-2.08,0,0-1.22-5.12-5.21-4.78-2.51.22-3.39,2.14-3.59,2.66-.49-.37-2.13-1.37-4.21-.1-3.41,2.08-1.36,6.94-1.36,6.94,0,0-5.02.91-2.84,4.68Z"/>
          <g>
            <path class="cls-4" d="M12.06,8.4s0,0,0,0c.38.68.97,1.13,1.64,1.14.12,0,.24-.01.35-.03h0c1.03-.22,1.83-1.45,1.87-2.95.03-1.22-.46-2.27-1.18-2.78h0s0,0,0,0c-.27-.19-.57-.3-.9-.3-1.06-.02-1.97,1.04-2.18,2.46-.03.17-.04.34-.04.52-.02.73.15,1.41.44,1.93Z"/>
            <path class="cls-3" d="M12.07,8.41c.38.68.97,1.13,1.64,1.14,1.19.03,2.19-1.31,2.23-2.99.04-1.68-.9-3.05-2.08-3.08-1.06-.02-1.97,1.04-2.18,2.46,0,0,.87-1.51,1.96-1.06,1.08.45,1.68,2.02,1.09,3.32-.6,1.3-2.05,1.09-2.64.21Z"/>
            <path class="cls-6" d="M14.75,3.78h0,0s0,0,0,0Z"/>
            <path class="cls-6" d="M14.4,5.16c-.1-.32,0-.63.24-.71.24-.08.51.11.62.43.1.32,0,.63-.24.71-.24.08-.51-.11-.62-.43Z"/>
          </g>
          <g>
            <path class="cls-4" d="M10.44,8.93s0,0,0,.01c.1.78-.11,1.48-.64,1.89-.09.07-.2.13-.3.18h0c-.96.44-2.33-.07-3.25-1.26-.74-.96-.98-2.1-.7-2.93h0s0,0,0,0c.11-.31.29-.58.54-.78.84-.65,2.21-.34,3.22.69.12.12.23.25.34.39.45.58.71,1.22.79,1.82Z"/>
            <path class="cls-3" d="M10.44,8.94c.1.78-.11,1.48-.64,1.89-.94.73-2.54.25-3.56-1.08-1.03-1.33-1.09-2.99-.15-3.72.84-.65,2.21-.34,3.22.69,0,0-1.6-.7-2.21.31-.6,1-.16,2.62,1.09,3.32,1.25.69,2.3-.34,2.25-1.4Z"/>
            <path class="cls-6" d="M5.54,6.81h0,0s0,0,0,0Z"/>
            <path class="cls-6" d="M6.63,7.72c-.1-.32-.38-.51-.62-.43-.24.08-.35.4-.24.71.1.32.38.51.62.43.24-.08.35-.4.24-.71Z"/>
          </g>
          <g>
            <path class="cls-4" d="M7.01,14.09s0,0,0,0c.31.55.36,1.14.09,1.61-.05.08-.11.16-.17.23h0c-.59.62-1.77.65-2.82.03-.85-.5-1.37-1.28-1.4-1.99h0s0,0,0,0c-.01-.27.04-.52.17-.75.44-.74,1.55-.91,2.62-.45.13.05.25.12.38.19.51.3.9.7,1.14,1.12Z"/>
            <path class="cls-3" d="M7.01,14.1c.31.55.36,1.14.09,1.61-.49.83-1.83.95-3,.26-1.17-.69-1.72-1.91-1.23-2.74.44-.74,1.55-.91,2.62-.45,0,0-1.41-.04-1.56.89-.15.93.67,2.01,1.81,2.16,1.15.14,1.62-.95,1.26-1.73Z"/>
            <path class="cls-6" d="M2.7,13.97h0,0s0,0,0,0Z"/>
            <path class="cls-6" d="M3.79,14.32c-.17-.2-.44-.27-.59-.14-.15.13-.14.4.03.61.17.21.44.27.59.14.15-.13.14-.4-.03-.61Z"/>
          </g>
          <g>
            <path class="cls-4" d="M18.17,10.42s0,0,0,0c.08.63.39,1.14.88,1.35.09.04.18.06.28.08h0c.84.15,1.81-.53,2.29-1.65.39-.9.34-1.84-.05-2.43h0s0,0,0,0c-.15-.22-.34-.4-.58-.5-.79-.34-1.79.19-2.38,1.19-.07.12-.13.25-.19.38-.23.54-.31,1.1-.25,1.58Z"/>
            <path class="cls-3" d="M18.18,10.43c.08.63.39,1.14.88,1.35.88.38,2.03-.32,2.56-1.57.53-1.25.24-2.56-.64-2.94-.79-.34-1.79.19-2.38,1.19,0,0,1.11-.87,1.79-.21.68.66.66,2.02-.18,2.81-.84.8-1.86.2-2.04-.64Z"/>
            <path class="cls-6" d="M21.57,7.76h0,0s0,0,0,0Z"/>
            <path class="cls-6" d="M20.9,8.69c.02-.27.19-.47.39-.46.2.01.35.24.33.51-.02.27-.19.47-.39.46-.2-.01-.35-.24-.33-.51Z"/>
          </g>
          <g>
            <path class="cls-4" d="M9.07,20.12c.68.65,1.33.83,1.93.76h0c.9-.11,1.68-.8,2.25-1.36.96-.94,2.41-1.42,3.74-1.23.71.1,1.61.18,2.36-.12,0,0,0,0,0,0,.65-.26,1.18-.81,1.37-1.88.2-1.16-.23-1.82-.83-2.22h0c-.61-.41-1.37-.55-1.84-.64-.11-.02-.21-.08-.33-.16h0c-.89-.67-2.08-2.95-5.1-1.93-3.79,1.1-2.65,3.83-3.02,4.75h0c-.02.06-.05.12-.09.16-.2.22-.48.52-.73.89t0,.01c-.54.8-.88,1.88.28,2.99Z"/>
            <path class="cls-3" d="M9.07,20.12c1.69,1.62,3.24.34,4.19-.6.96-.94,2.41-1.42,3.74-1.23,1.33.19,3.33.3,3.73-2.01.2-1.16-.23-1.82-.83-2.22.05.1.9,1.72-.58,2.72-1.52,1.03-2.9-.47-4.85.15-1.94.62-2.13,2.23-3.22,2.68-1.08.45-3.23-.38-2.48-2.48-.54.8-.88,1.88.28,2.99Z"/>
            <path class="cls-3" d="M9.62,16.07c5.77.74,8.12-2.82,8.12-2.82h0c-.89-.67-2.08-2.95-5.1-1.93-3.79,1.1-2.65,3.83-3.02,4.75Z"/>
            <path class="cls-2" d="M12.08,13.73c.11.34.56.49,1.01.35.45-.15.72-.54.6-.88-.11-.34-.56-.49-1.01-.35-.45.15-.72.54-.6.88Z"/>
          </g>
        </g>
      </g>
    </g>
  </g>
</svg>