<?xml version="1.0" encoding="UTF-8"?>
<svg xmlns="http://www.w3.org/2000/svg" xmlns:xlink="http://www.w3.org/1999/xlink" viewBox="0 0 39.23 10.4">
  <defs>
    <style>
      .cls-1 {
        isolation: isolate;
      }

      .cls-2 {
        fill: url(#linear-gradient);
      }

      .cls-2, .cls-3, .cls-4 {
        mix-blend-mode: overlay;
      }

      .cls-5 {
        fill: #914e27;
      }

      .cls-3 {
        fill: url(#linear-gradient-2);
      }

      .cls-4 {
        fill: url(#linear-gradient-3);
      }

      .cls-6 {
        fill: #ffdf80;
      }
    </style>
    <linearGradient id="linear-gradient" x1="5.16" y1=".71" x2="5.23" y2="9.39" gradientUnits="userSpaceOnUse">
      <stop offset=".15" stop-color="#fff"/>
      <stop offset=".15" stop-color="#fff" stop-opacity=".98"/>
      <stop offset=".27" stop-color="#fff" stop-opacity=".69"/>
      <stop offset=".38" stop-color="#fff" stop-opacity=".44"/>
      <stop offset=".48" stop-color="#fff" stop-opacity=".25"/>
      <stop offset=".57" stop-color="#fff" stop-opacity=".11"/>
      <stop offset=".64" stop-color="#fff" stop-opacity=".03"/>
      <stop offset=".69" stop-color="#fff" stop-opacity="0"/>
    </linearGradient>
    <linearGradient id="linear-gradient-2" x1="19.58" y1=".71" x2="19.65" y2="9.39" xlink:href="#linear-gradient"/>
    <linearGradient id="linear-gradient-3" x1="34" y1=".71" x2="34.07" y2="9.39" xlink:href="#linear-gradient"/>
  </defs>
  <g class="cls-1">
    <g id="Layer_2" data-name="Layer 2">
      <g id="Layer_1-2" data-name="Layer 1">
        <g>
          <g>
            <g>
              <path class="cls-6" d="M5.2,10.14c-.11,0-.21-.07-.24-.17-.96-2.84-1.68-3.56-4.52-4.52-.1-.04-.18-.13-.18-.24s.07-.21.18-.24C3.28,4,3.99,3.28,4.96.43c.04-.1.13-.17.24-.17s.21.07.24.17c.96,2.84,1.68,3.56,4.52,4.52.1.04.18.13.18.24s-.07.21-.18.24c-2.84.96-3.56,1.68-4.52,4.52-.04.1-.13.17-.24.17Z"/>
              <path class="cls-5" d="M5.2.51c.98,2.91,1.78,3.7,4.68,4.68-2.91.98-3.7,1.78-4.68,4.68-.98-2.91-1.78-3.7-4.68-4.68,2.91-.98,3.7-1.78,4.68-4.68M5.2,0c-.22,0-.42.14-.49.35C3.79,3.09,3.09,3.79.35,4.71c-.21.07-.35.27-.35.49s.14.42.35.49c2.74.93,3.44,1.62,4.36,4.36.07.21.27.35.49.35s.42-.14.49-.35c.93-2.74,1.62-3.44,4.36-4.36.21-.07.35-.27.35-.49s-.14-.42-.35-.49c-2.74-.93-3.44-1.62-4.36-4.36-.07-.21-.27-.35-.49-.35h0Z"/>
            </g>
            <path class="cls-2" d="M8.93,5.2c-2.32.78-2.95,1.42-3.73,3.73-.78-2.32-1.42-2.95-3.73-3.73,2.32-.78,2.95-1.42,3.73-3.73.78,2.32,1.42,2.95,3.73,3.73Z"/>
          </g>
          <g>
            <g>
              <path class="cls-6" d="M19.62,10.14c-.11,0-.21-.07-.24-.17-.96-2.84-1.68-3.56-4.52-4.52-.1-.04-.18-.13-.18-.24s.07-.21.18-.24c2.84-.96,3.56-1.68,4.52-4.52.04-.1.13-.17.24-.17s.21.07.24.17c.96,2.84,1.68,3.56,4.52,4.52.1.04.18.13.18.24s-.07.21-.18.24c-2.84.96-3.56,1.68-4.52,4.52-.04.1-.13.17-.24.17Z"/>
              <path class="cls-5" d="M19.62.51c.98,2.91,1.78,3.7,4.68,4.68-2.91.98-3.7,1.78-4.68,4.68-.98-2.91-1.78-3.7-4.68-4.68,2.91-.98,3.7-1.78,4.68-4.68M19.62,0c-.22,0-.42.14-.49.35-.93,2.74-1.62,3.44-4.36,4.36-.21.07-.35.27-.35.49s.14.42.35.49c2.74.93,3.44,1.62,4.36,4.36.07.21.27.35.49.35s.42-.14.49-.35c.93-2.74,1.62-3.44,4.36-4.36.21-.07.35-.27.35-.49s-.14-.42-.35-.49c-2.74-.93-3.44-1.62-4.36-4.36-.07-.21-.27-.35-.49-.35h0Z"/>
            </g>
            <path class="cls-3" d="M23.35,5.2c-2.32.78-2.95,1.42-3.73,3.73-.78-2.32-1.42-2.95-3.73-3.73,2.32-.78,2.95-1.42,3.73-3.73.78,2.32,1.42,2.95,3.73,3.73Z"/>
          </g>
          <g>
            <g>
              <path class="cls-6" d="M34.03,10.14c-.11,0-.21-.07-.24-.17-.96-2.84-1.68-3.56-4.52-4.52-.1-.04-.18-.13-.18-.24s.07-.21.18-.24c2.84-.96,3.56-1.68,4.52-4.52.04-.1.13-.17.24-.17s.21.07.24.17c.96,2.84,1.68,3.56,4.52,4.52.1.04.18.13.18.24s-.07.21-.18.24c-2.84.96-3.56,1.68-4.52,4.52-.04.1-.13.17-.24.17Z"/>
              <path class="cls-5" d="M34.03.51c.98,2.91,1.78,3.7,4.68,4.68-2.91.98-3.7,1.78-4.68,4.68-.98-2.91-1.78-3.7-4.68-4.68,2.91-.98,3.7-1.78,4.68-4.68M34.03,0c-.22,0-.42.14-.49.35-.93,2.74-1.62,3.44-4.36,4.36-.21.07-.35.27-.35.49s.14.42.35.49c2.74.93,3.44,1.62,4.36,4.36.07.21.27.35.49.35s.42-.14.49-.35c.93-2.74,1.62-3.44,4.36-4.36.21-.07.35-.27.35-.49s-.14-.42-.35-.49c-2.74-.93-3.44-1.62-4.36-4.36-.07-.21-.27-.35-.49-.35h0Z"/>
            </g>
            <path class="cls-4" d="M37.77,5.2c-2.32.78-2.95,1.42-3.73,3.73-.78-2.32-1.42-2.95-3.73-3.73,2.32-.78,2.95-1.42,3.73-3.73.78,2.32,1.42,2.95,3.73,3.73Z"/>
          </g>
        </g>
      </g>
    </g>
  </g>
</svg>