<?xml version="1.0" encoding="UTF-8"?>
<svg xmlns="http://www.w3.org/2000/svg" xmlns:xlink="http://www.w3.org/1999/xlink" viewBox="0 0 88.14 51.36">
  <defs>
    <style>
      .cls-1 {
        fill: #fff;
        opacity: .44;
      }

      .cls-1, .cls-2, .cls-3, .cls-4, .cls-5, .cls-6 {
        mix-blend-mode: overlay;
      }

      .cls-7 {
        fill: #a09290;
      }

      .cls-8 {
        fill: url(#linear-gradient);
      }

      .cls-9 {
        isolation: isolate;
      }

      .cls-2 {
        opacity: .3;
      }

      .cls-10 {
        fill: #382537;
      }

      .cls-3 {
        fill: url(#linear-gradient-3);
      }

      .cls-3, .cls-4, .cls-5 {
        opacity: .22;
      }

      .cls-4 {
        fill: url(#linear-gradient-4);
      }

      .cls-5 {
        fill: url(#linear-gradient-5);
      }

      .cls-6 {
        fill: url(#linear-gradient-2);
        opacity: .53;
      }
    </style>
    <linearGradient id="linear-gradient" x1="45.44" y1="66.18" x2="43.7" y2="13.06" gradientUnits="userSpaceOnUse">
      <stop offset=".1" stop-color="#9a8897"/>
      <stop offset="1" stop-color="#4d324b"/>
    </linearGradient>
    <linearGradient id="linear-gradient-2" x1="-560.34" y1="198.79" x2="-618.13" y2="177.34" gradientTransform="translate(-468.75 -314.44) rotate(-162.38) scale(1 -.94) skewX(1.44)" gradientUnits="userSpaceOnUse">
      <stop offset="0" stop-color="#fff"/>
      <stop offset="1" stop-color="#fff" stop-opacity="0"/>
    </linearGradient>
    <linearGradient id="linear-gradient-3" x1="-326.51" y1="51.39" x2="-340.05" y2="48.02" gradientTransform="translate(-287.49 -5.69) rotate(178.04) scale(1 -.94) skewX(-.96)" gradientUnits="userSpaceOnUse">
      <stop offset="0" stop-color="#000"/>
      <stop offset=".88" stop-color="#000" stop-opacity=".28"/>
      <stop offset="1" stop-color="#000" stop-opacity="0"/>
    </linearGradient>
    <linearGradient id="linear-gradient-4" x1="-280.68" y1="-1.33" x2="-288.34" y2="-4.28" gradientTransform="translate(-217.98 76.86) rotate(171.72) scale(1 -.94) skewX(-1.69)" xlink:href="#linear-gradient-3"/>
    <linearGradient id="linear-gradient-5" x1="-649.29" y1="186.44" x2="-655.41" y2="184.09" gradientTransform="translate(-461.93 -385.46) rotate(-155.47) scale(.99 -.95) skewX(2.18)" xlink:href="#linear-gradient-3"/>
  </defs>
  <g class="cls-9">
    <g id="Layer_2" data-name="Layer 2">
      <g id="Layer_1-2" data-name="Layer 1">
        <g>
          <g>
            <path class="cls-8" d="M55.3,50.88c-2.04,0-4.13-.17-6.21-.5-7.49-1.2-13.29-3.01-17.26-7.99-.15-.19-.14-.46.03-.64.09-.1.22-.15.35-.15.1,0,.2.03.29.1.09.07.12.1.16.11.61.44,1.25.77,1.96,1.03-1.23-.93-2.52-1.81-3.87-2.64-.9-.54-1.72-1-2.49-1.4-.1-.05-.19-.1-.28-.15-.64-.33-1.28-.64-1.93-.93l-.39-.18c-.76-.34-1.59-.69-2.53-1.05-.58-.22-1.28-.37-1.95-.51-.6-.13-1.17-.25-1.59-.41l-.09-.03c-.14-.04-.29-.09-.45-.13,0,0-.04,0-.05,0-.52-.12-1.16-.18-1.89-.18-1.11,0-2.47.14-3.83.4l-.12.02c-1.33.26-2.28.56-2.61.72-.51.25-1.05.49-1.58.73-1.39.63-2.83,1.29-3.89,2.05-.09.06-.16.12-.23.17-.48.37-.83.75-1.09,1.15l-.11.19c-.09.15-.25.25-.42.25-.03,0-.06,0-.09,0-.2-.04-.36-.2-.39-.4-.21-1.35-.41-3.03-.31-4.79-.1.44-.18.88-.24,1.34-.01.11-.02.15-.03.19-.04.22-.23.38-.46.39h-.02c-.22,0-.41-.14-.47-.35-1.33-4.67-.92-9.33,1.31-14.66.01-.03.07-.14.09-.17.03-.09.18-.34.4-.67.02-.03.1-.12.12-.14,1.77-2.01,3.66-3.42,5.69-4.25-.18-.02-.34-.15-.4-.33-.08-.23.03-.49.26-.59,1.22-.56,2.43-1.05,3.61-1.47,3.1-1.11,5.9-1.64,8.56-1.64,1.22,0,2.4.11,3.55.33-.64-.22-1.31-.38-2.02-.48-.25-.03-.44-.25-.42-.51.01-.25.22-.45.47-.46.2,0,.39,0,.58,0,2.76,0,5.45.38,8.2,1.17,2.06.58,4.13,1.38,6.33,2.44.65.3,1.2.59,1.75.87.39.2.77.4,1.2.61.21.11.4.22.59.32.3.17.6.33.91.47.55.24,1.01.42,1.44.55.02,0,.04,0,.05.01,1.05.33,2.12.5,3.15.5,1.68,0,3.31-.41,4.99-1.26,1.02-.52,1.84-1.17,2.56-2.07.39-.48.76-1.02,1.19-1.77.43-.78.68-1.82.83-2.54.17-.86.24-1.28.23-2.21-.03-2.58-.75-5.33-2.15-8.16-.08-.16-.06-.35.04-.5.09-.13.24-.2.39-.2.02,0,.05,0,.07,0,2.47.37,4.95.74,7.42,1.11,7.01,1.05,14.26,2.14,21.41,3.07.13.02.26.09.33.2,3.79,5.43,4.1,10.48,3.35,17.38-.13,1.22-.81,3.83-1.64,6.36-.24.73-.48,1.39-.7,1.96l-.06.17c-.05.14-.1.27-.16.4-.15.39-.28.7-.37.88-.08.19-.16.36-.24.54-.07.15-.16.32-.24.48-.02.04-.05.09-.07.15-1.68,3.5-3.68,7.46-6.25,10.54-.02.03-.04.05-.05.07l-.22.24c-.11.1-2.05,1.85-7.96,4.08-.05.02-.11.03-.17.03-.19,0-.37-.11-.44-.28-.05-.11-.06-.24-.03-.35,0,0,0,0-.01,0-.31.22-.67.42-1.02.62-.36.2-.72.38-1.09.54-2.99,1.4-6.79,2.16-10.99,2.19h-.31Z"/>
            <path class="cls-10" d="M54.74.97c9.61,1.42,19.2,2.93,28.84,4.18,3.74,5.35,4.01,10.23,3.27,17.05v.02c-.13,1.18-.81,3.78-1.62,6.24-.24.72-.48,1.38-.69,1.94-.07.18-.13.36-.21.53-.16.41-.29.71-.37.89-.08.19-.16.36-.24.53-.07.15-.15.31-.23.46-.03.06-.06.12-.09.19-1.66,3.45-3.65,7.4-6.19,10.44,0,.02-.02.03-.02.03l-.22.24c-.37.34-2.49,1.96-7.78,3.95h-.01c.1-.12.21-.24.32-.36.25-.28.51-.57.75-.85.55-.66,1.05-1.36,1.29-2.13-.66.84-1.42,1.57-2.25,2.2-.27.21-.55.41-.84.59-.32.22-.66.42-1,.61-.34.19-.69.36-1.05.52-3.25,1.52-7.11,2.12-10.79,2.15-.11,0-.21,0-.32,0-2.18,0-4.26-.2-6.12-.49-6.82-1.09-12.93-2.76-16.96-7.81.08.06.15.12.23.16,1.26.91,2.64,1.34,4.17,1.57-.03-.03-.07-.06-.1-.08-1.72-1.45-3.58-2.77-5.51-3.95-.83-.5-1.67-.98-2.52-1.42-.09-.05-.19-.1-.29-.15-.64-.33-1.29-.64-1.94-.94l-.39-.18c-.84-.38-1.7-.73-2.56-1.06-1.17-.44-2.72-.6-3.53-.92-.19-.06-.39-.13-.61-.18-.01,0-.03-.01-.05-.01-.59-.13-1.27-.19-1.99-.19-1.29,0-2.71.18-3.93.41-.06.01-.11.02-.16.03-1.26.25-2.28.55-2.69.75-1.88.91-4.04,1.74-5.54,2.83-.09.06-.18.13-.26.2-.49.38-.89.8-1.18,1.26-.04.07-.08.14-.12.21-.34-2.22-.49-4.34-.11-6.46.03-.2.07-.41.12-.61.04-.2.09-.41.15-.61.04-.17.09-.33.15-.5.06-.2.13-.41.2-.61-.39.59-.73,1.19-1.02,1.81-.01.02-.02.04-.02.05-.51,1.1-.84,2.26-.98,3.5-.01.05-.01.1-.02.15-1.42-4.98-.68-9.62,1.29-14.34.01-.02.02-.05.04-.08.07-.17.25-.45.4-.67.02-.03.04-.05.06-.07l.02-.02c2.66-3.02,5.82-4.96,9.91-4.96.49,0,.98.03,1.5.08-1.1-.32-2.19-.47-3.27-.47-.91,0-1.82.1-2.76.3,1.18-.54,2.38-1.03,3.57-1.45,2.78-.99,5.58-1.61,8.4-1.61s5.66.62,8.5,2.14c-2.05-1.57-4.25-2.9-6.91-3.24.19,0,.39,0,.58,0,2.85,0,5.5.41,8.06,1.15,2.11.6,4.17,1.41,6.25,2.41,1.11.52,1.92.98,2.94,1.48.54.28,1,.57,1.52.8s1.03.43,1.54.58h.01c1.11.35,2.21.52,3.3.52,1.75,0,3.48-.44,5.21-1.32,1.15-.58,2.01-1.32,2.72-2.2.46-.56.85-1.17,1.23-1.83.44-.8.7-1.81.88-2.68.17-.88.25-1.33.24-2.31-.03-2.85-.89-5.72-2.2-8.37M54.74,0c-.31,0-.6.15-.78.4-.21.29-.25.68-.09,1,1.37,2.76,2.07,5.44,2.1,7.95,0,.88-.06,1.26-.22,2.12-.14.67-.37,1.66-.78,2.4-.41.7-.76,1.23-1.13,1.68-.68.85-1.45,1.47-2.41,1.95-1.62.82-3.18,1.21-4.78,1.21-.99,0-2-.16-3.01-.47-.03,0-.06-.02-.08-.02-.41-.12-.84-.29-1.36-.52-.29-.13-.57-.28-.87-.45-.19-.11-.39-.22-.6-.32-.44-.22-.82-.41-1.21-.61-.54-.28-1.1-.57-1.77-.88-2.21-1.06-4.3-1.87-6.4-2.46-2.8-.8-5.52-1.18-8.33-1.18-.2,0-.4,0-.6,0-.51,0-.92.41-.95.92,0,.07,0,.13,0,.2-.21,0-.42-.01-.63-.01-2.72,0-5.57.55-8.73,1.67-1.19.42-2.42.92-3.65,1.48-.45.21-.67.72-.52,1.18,0,0,0,.02,0,.02-1.83.87-3.55,2.22-5.18,4.06-.07.07-.12.13-.18.22-.28.41-.4.63-.46.77-.02.04-.04.07-.05.11C-.16,27.87-.59,32.63.78,37.41c.12.42.5.7.93.7.01,0,.03,0,.04,0,.08,0,.17-.02.24-.04.06.9.18,1.75.29,2.5.06.41.38.73.78.81.06.01.12.02.18.02.34,0,.67-.18.84-.49l.12-.21c.2-.32.52-.66.93-.97.02-.01.03-.02.04-.04.05-.04.1-.09.16-.12,1.05-.76,2.47-1.4,3.84-2.03.54-.24,1.07-.49,1.59-.74.26-.13,1.12-.41,2.46-.67l.13-.02c1.35-.26,2.68-.4,3.77-.4.7,0,1.3.06,1.78.16.01,0,.02,0,.04,0,.01,0,.02,0,.03,0,.14.03.27.07.39.11l.09.03c.45.17,1.02.29,1.63.42.65.14,1.33.28,1.88.49.94.36,1.76.7,2.5,1.04l.38.18c.75.35,1.35.64,1.9.92.1.05.19.09.26.14.78.41,1.59.86,2.49,1.4.38.23.75.47,1.12.7-.04.03-.07.06-.1.09-.34.35-.37.9-.06,1.28,4.07,5.09,9.96,6.95,17.56,8.16,2.1.33,4.21.5,6.28.5h.32c4.26-.03,8.13-.81,11.19-2.24.38-.17.75-.36,1.11-.55.19-.11.36-.2.52-.3.18.22.46.36.75.36.12,0,.24-.02.35-.06,5.9-2.22,7.89-3.95,8.09-4.14.02-.02.04-.04.06-.06l.22-.24s.05-.06.08-.1c2.6-3.12,4.61-7.11,6.29-10.6.04-.09.06-.13.08-.18.08-.14.16-.32.24-.48.08-.18.17-.36.26-.56.07-.17.21-.47.37-.89.06-.13.11-.27.17-.41l.06-.15c.27-.72.5-1.37.71-1.98.84-2.57,1.53-5.21,1.66-6.44,0-.02,0-.04,0-.07.75-6.99.43-12.13-3.44-17.67-.16-.22-.4-.37-.67-.41-7.14-.93-14.38-2.01-21.38-3.07-2.48-.37-4.96-.74-7.44-1.11-.05,0-.09-.01-.14-.01h0Z"/>
          </g>
          <path class="cls-7" d="M28.8,33.98c-.21.55,1.76,3.76,2.21,5.8-2.45-1.49-5.05-2.74-7.7-3.75-1.17-.44-2.72-.6-3.54-.92-.2-.08-.42-.15-.65-.19.98-1.12,1.97-2.43,1.9-3.11-.13-1.31-4.12-4.84-4.03-5.85.09-1.02,1.86-1.8,1.96-2.76s-2.77-1.85-2.77-1.85c0,0,2.3-1.21,2.16-2.79-.1-1.08-3.63-2.39-5.87-3.11,5.55-1.98,11.22-2.5,16.89.53-2.05-1.58-4.25-2.91-6.91-3.24,3.07-.07,5.9.35,8.64,1.13.98,2.02,1.57,4.28,1.57,4.28,0,0-3.03.8-2.69,1.9.33,1.1,3.39,5.17,3.39,5.17,0,0-5.48.22-4.43,1.96,1.04,1.73,3.92,3.12,3.92,3.12,0,0-3.76,2.87-4.05,3.68Z"/>
          <path class="cls-7" d="M76.97,43.71c-.38.34-2.5,1.97-7.8,3.97.84-.97,1.98-2.08,2.37-3.36-3.58,4.54-10,6.02-15.93,6.07.65-1.05,1.21-2.2,1.06-2.89-.33-1.48-3.99-1.53-3.99-1.53,0,0,3.15-2.98,3.11-4.35-.04-1.36-5.85-.59-5.85-.59,0,0,3.05-3.95,2.02-4.7-1.04-.75-5.04-.91-5.04-.91,0,0,7.44-3.34,3.92-3.29-3.51.06-8.05-.74-8.38-.85-.33-.1,7.09-1.55,7.1-3.33.02-1.79-6.49-4.19-6.49-4.19,0,0,3.47.21,3.81-.72.36-.93-4.49-3.75-4.49-3.75l.96-.13h0c2.89.9,5.7.62,8.52-.81,1.14-.57,2-1.32,2.72-2.2-.2,1.84-.28,4.18.44,4.75,1.25.96,4.51-1.8,4.51-1.8,0,0-1.36,4.84,0,6.36,1.34,1.52,5.42-1.2,5.42-1.2-.11,4.81-2.02,5.34-1.36,6.43.64,1.07,6.79-.52,7.11-.6-.15.26-3.22,5.54-1.94,6.56,1.27,1.03,5.58-.35,5.85-.44-.13.26-2.42,4.67-2.29,5.78.09.78,2.9,1.39,4.63,1.69Z"/>
          <path class="cls-2" d="M86.96,21.89c-.03,1.31-.91,4.21-1.73,6.57-.24.72-.48,1.38-.69,1.94-.07.19-.14.37-.21.53-.16.41-.29.71-.37.89-.15.31-.3.64-.47.99-.03.06-.06.12-.09.19-1.66,3.45-3.65,7.4-6.19,10.44,0,.02-.02.03-.02.03l-.22.24c-.37.34-2.49,1.96-7.78,3.95h-.03c.11-.12.22-.24.34-.36.25-.28.51-.57.75-.85.59-.68,1.09-1.39,1.35-2.21-.02.03-.04.06-.06.08-.66.84-1.42,1.57-2.25,2.2-.27.21-.55.41-.84.59-.32.22-.66.42-1,.61-5.39,2.94-12.9,2.97-18.2,2.12-6.78-1.08-12.79-2.7-16.81-7.59-.07-.08-.14-.16-.2-.24,1.28,1,2.76,1.48,4.27,1.73.04,0,.08,0,.12.02-2.12-2.12-5.18-3.9-8.15-5.39-.09-.05-.19-.1-.29-.15-.64-.33-1.29-.64-1.94-.94l-.39-.18c-.84-.39-1.65-.77-2.4-1.12-1.23-.58-2.74-.9-4.3-1.04-2.09-.19-4.27-.05-5.97.21-.06.01-.11.02-.16.03-1.08.17-1.96.4-2.47.62-2.52,1.09-4.35,1.84-5.76,2.96-.09.06-.18.13-.26.2-.43.37-.82.78-1.18,1.26-.04.05-.07.1-.11.15-.29-2.21-.47-4.31-.12-6.4.03-.2.07-.41.12-.61.04-.2.09-.41.15-.61.04-.17.09-.33.15-.5.06-.2.13-.41.2-.61.02-.04.03-.08.05-.12-.42.63-.77,1.27-1.07,1.93-.01.02-.02.04-.02.05-.51,1.13-.83,2.32-.96,3.58-.01-.03-.01-.05-.02-.08-1.38-4.96-.66-9.57,1.31-14.27.07-.17.25-.45.4-.67.04-.06.07-.11.1-.16-.01.02-.02.05-.02.07-1.2,3.42-1.86,6.86-1.53,10.5.77-1.66,1.89-3.02,3.32-4.21-.66,1.87-1.49,4.21-.02,6.03,7.34-2.37,15.56-2.19,22.3.76,6.74,2.94,11.06,5.75,17.77,7.73-1.63,1.09-3.8,1.01-5.7.95,13.05,3.1,25.99,2.94,36.41-5.92-.26,1.87-1.01,3.51-2.27,4.97,6.5-5.76,10.4-12.78,13.05-20.56v-.02c.04-.1.07-.21.11-.31Z"/>
          <path class="cls-6" d="M56.88,24.41c-5.49,2.19-12.07.3-16.96-1.94-4.89-2.24-9.54-4.87-14.95-4.34,1.74.33,3.28.93,4.43,2.2-6.65-.39-11.74,2.07-16.02,6.66,3.4-1.31,6.81-1.63,10.46-1.14-4.46.71-8.1,3.04-11.66,5.55,6.53-1.24,11.38.35,17.71,3.04,6.33,2.69,14.74,4.95,22.12,4.97-1.07,1.76-2.6,3.04-4.58,3.86,6.78.52,12.79-.46,18.34-4.19"/>
          <path class="cls-1" d="M26.02,16.38c-.3,2.1,4.14,2.73,5.71,2.92,1.57.19,6.03.72,6.4-1.36.37-2.08-4.12-2.87-5.69-3.06-1.57-.19-6.12-.6-6.42,1.5Z"/>
          <path class="cls-1" d="M34.97,21.25c-.28,1.63,3.1,2.26,4.33,2.44,1.23.18,4.66.67,5.04-.94.38-1.61-3.12-2.34-4.34-2.52-1.22-.18-4.75-.61-5.03,1.02Z"/>
          <path class="cls-1" d="M3.04,22.73c.08-.2.36-.66.5-.82,3-3.4,6.59-5.43,11.43-4.91-2.03-.58-3.99-.61-6.04-.17,6.66-3.02,13.65-4.66,20.5-.9-2-1.59-4.35-2.93-6.86-3.26,4.16.14,11.17,3.35,14.3,3.52,2.04.11-.1,0,.41.02.5.03.08,0,.09,0,.46.18.99.48,1.3.63s.44.22.62.31c.18.09.09.04.24.13.16.09.66.36.77.4.11.04.03.01.03.01.5.2.91.47,1.37.71.06.03.11.07.18.1,5.73,2.23,10.8.67,13.98-4.26.53-.82.61-1.78.92-2.7.1,2.3-.25,3.76-1.96,5.68-2.11,2.35-5.03,3.65-8.49,3.5,4.48,1.84,7.93,1.39,11.41-1.73.88-.79,1.3-2.72,1.85-3.06.55-.34.13-.08.13-.07-1.59,5.68-5.63,7.98-11.92,6.88-3.43-.6-6.46-2.58-9.31-4.38-.88-.55-1.45-.95-2.27-1.45-2.4-1.44-5.06-2.1-7.78-2.79,1.64.57,2.58,1.83,3.32,3.26-6.17-2.58-12.27-3.11-18.74-1.53,2.11.13,4.04.69,5.47,2.22C7.23,15.78,3.29,24.07,1.7,33c.31-2.15,2.08-4.18,3.32-5.87-1.02,3.27-.88,6.83-.85,10.2,5.1-2.37,9.94-3.47,15.5-2.25-2.2-1.08-8.23.24-9.32.78-2.63,1.3-6.06,2.49-7.06,4.51-.48-3.05-.6-5.93.52-8.84-1.14,1.71-1.84,3.53-2.05,5.55-1.41-4.98-.69-9.63,1.29-14.35Z"/>
          <polygon class="cls-2" points="77.25 43.37 77.25 43.35 77.24 43.37 77.25 43.37"/>
          <path class="cls-2" d="M44.82,21.78c7.06.82,12.24-1.27,17.08-6-2.45,3.58-5.4,8.2-2.06,12.36-1.04-3.68,4.15-12.53,7.25-8.42s.48,6.63-.61,10.15c3.7-2.24,6.37-5.52,8.34-9.27-1.35,6.54-3.81,12.61-10.11,16.22,6.56-1.61,11.41-4.77,14.18-10.73-.57,4-1.64,7.92-4.9,10.73,5.27-2.69,8.21-6.76,9.28-12.34-.33,6.83-1.81,13.24-6.01,18.86,2.65-3.2,4.8-7.47,6.52-11.05,1.3-2.7,2.92-8.24,3.13-10.13.74-6.83.47-11.71-3.27-17.06-9.64-1.26-19.23-2.77-28.83-4.19,1.31,2.66,2.16,5.52,2.2,8.37.01.98-.08,1.42-.25,2.31-.16.89-.45,1.86-.88,2.68-.92,1.77-2.19,2.98-3.92,4.06,2.08-.47,4.07-1.11,5.85-2.24-3.6,3.41-7.61,6.1-13,5.71Z"/>
          <path class="cls-3" d="M54.38,27.42c-2,.61-4.53-.55-6.32-1.24.5.96,1.23,1.53,2.35,1.7-3.56-.9-6.92-.9-10.36.31,3.84-.4,7.75-.48,11.21,1.39-1.96.44-3.9-.03-5.73-.73,3.97,3.75,8.91,2.77,13.57,1"/>
          <path class="cls-4" d="M65.32,30.88c-1.43,1.07-3.93.68-5.58.55.71.67,1.52,1,2.51.87-3.22.1-6.01.92-8.49,2.86,3.1-1.34,6.34-2.39,9.76-1.6-1.5.89-3.26.92-4.98.76,4.46,2.26,8.13.32,11.4-2.66"/>
          <path class="cls-5" d="M51.78,39.61c-1.43.2-2.96-.96-4.03-1.67.19.72.59,1.23,1.33,1.5-2.23-1.11-4.49-1.56-6.98-1.22,2.65.27,5.29.76,7.3,2.51-1.42.03-2.59-.53-3.72-1.3,2.05,3.17,5.48,3.12,8.89,2.38"/>
        </g>
      </g>
    </g>
  </g>
</svg>