<?xml version="1.0" encoding="UTF-8"?>
<svg xmlns="http://www.w3.org/2000/svg" xmlns:xlink="http://www.w3.org/1999/xlink" viewBox="0 0 54.39 26.88">
  <defs>
    <style>
      .cls-1 {
        mask: url(#mask);
      }

      .cls-2 {
        fill: url(#radial-gradient-9);
      }

      .cls-2, .cls-3, .cls-4, .cls-5, .cls-6, .cls-7, .cls-8, .cls-9, .cls-10 {
        mix-blend-mode: screen;
      }

      .cls-11 {
        fill: url(#_åçûìßííûé_ãðàäèåíò_156);
      }

      .cls-11, .cls-12 {
        mix-blend-mode: multiply;
      }

      .cls-13 {
        fill: #8e23cc;
      }

      .cls-14 {
        fill: url(#radial-gradient-7);
      }

      .cls-15 {
        fill: url(#radial-gradient-6);
      }

      .cls-16 {
        fill: url(#radial-gradient-5);
      }

      .cls-17 {
        fill: url(#radial-gradient-4);
      }

      .cls-18 {
        fill: url(#radial-gradient-8);
      }

      .cls-19 {
        fill: url(#radial-gradient-3);
      }

      .cls-20 {
        fill: url(#radial-gradient-2);
      }

      .cls-21, .cls-22 {
        fill: #ffd182;
      }

      .cls-23 {
        fill: url(#linear-gradient-8);
      }

      .cls-24 {
        fill: url(#linear-gradient-7);
      }

      .cls-25 {
        fill: url(#linear-gradient-6);
      }

      .cls-26 {
        fill: #202020;
      }

      .cls-26, .cls-27, .cls-28, .cls-29, .cls-30, .cls-31, .cls-32 {
        mix-blend-mode: overlay;
      }

      .cls-27, .cls-33 {
        fill: #fff;
      }

      .cls-34 {
        fill: url(#radial-gradient);
      }

      .cls-35 {
        fill: url(#linear-gradient);
      }

      .cls-12 {
        fill: url(#_åçûìßííûé_ãðàäèåíò_156-2);
      }

      .cls-36 {
        isolation: isolate;
      }

      .cls-37 {
        mask: url(#mask-2);
      }

      .cls-38 {
        mask: url(#mask-3);
      }

      .cls-39 {
        mask: url(#mask-1);
      }

      .cls-3 {
        fill: url(#radial-gradient-16);
      }

      .cls-4 {
        fill: url(#radial-gradient-12);
      }

      .cls-5 {
        fill: url(#radial-gradient-13);
      }

      .cls-6 {
        fill: url(#radial-gradient-14);
      }

      .cls-7 {
        fill: url(#radial-gradient-17);
      }

      .cls-8 {
        fill: url(#radial-gradient-10);
      }

      .cls-9 {
        fill: url(#radial-gradient-11);
      }

      .cls-10 {
        fill: url(#radial-gradient-15);
      }

      .cls-40 {
        fill: #ff5c97;
      }

      .cls-28 {
        fill: url(#linear-gradient-2);
      }

      .cls-29 {
        fill: url(#linear-gradient-3);
      }

      .cls-30 {
        fill: url(#linear-gradient-4);
      }

      .cls-31 {
        fill: url(#linear-gradient-5);
      }

      .cls-41 {
        fill: url(#radial-gradient-18);
      }

      .cls-42 {
        fill: #fff645;
      }

      .cls-43 {
        fill: #c163ff;
      }

      .cls-22 {
        opacity: .68;
      }
    </style>
    <radialGradient id="radial-gradient" cx="354.85" cy="-309.92" fx="354.85" fy="-309.92" r="19.44" gradientTransform="translate(-443.53 12.39) rotate(40.77)" gradientUnits="userSpaceOnUse">
      <stop offset="0" stop-color="#ffd182"/>
      <stop offset=".39" stop-color="#fdcf83"/>
      <stop offset=".55" stop-color="#fac78a"/>
      <stop offset=".66" stop-color="#f3bb95"/>
      <stop offset=".76" stop-color="#eaaaa6"/>
      <stop offset=".84" stop-color="#de93bb"/>
      <stop offset=".91" stop-color="#ce77d5"/>
      <stop offset=".98" stop-color="#bd57f3"/>
      <stop offset="1" stop-color="#b74bff"/>
    </radialGradient>
    <linearGradient id="linear-gradient" x1="17.47" y1="4.68" x2="37.82" y2="22.22" gradientUnits="userSpaceOnUse">
      <stop offset="0" stop-color="#a1fffc"/>
      <stop offset="1" stop-color="#a442ff"/>
    </linearGradient>
    <radialGradient id="radial-gradient-2" cx="352.96" cy="-317.65" fx="352.96" fy="-317.65" r="3.02" gradientTransform="translate(-443.53 12.39) rotate(40.77)" gradientUnits="userSpaceOnUse">
      <stop offset="0" stop-color="#ffd182"/>
      <stop offset="1" stop-color="#cd82ff"/>
    </radialGradient>
    <radialGradient id="radial-gradient-3" cx="353.39" cy="-315.17" fx="353.39" fy="-315.17" r="5.96" xlink:href="#radial-gradient-2"/>
    <radialGradient id="radial-gradient-4" cx="354.68" cy="-313.24" fx="354.68" fy="-313.24" r="7.68" xlink:href="#radial-gradient-2"/>
    <radialGradient id="radial-gradient-5" cx="357.7" cy="-307" fx="357.7" fy="-307" r="9.72" xlink:href="#radial-gradient-2"/>
    <radialGradient id="radial-gradient-6" cx="359.33" cy="-303.46" fx="359.33" fy="-303.46" r="8.94" xlink:href="#radial-gradient-2"/>
    <radialGradient id="radial-gradient-7" cx="362.11" cy="-296.33" fx="362.11" fy="-296.33" r="3.32" xlink:href="#radial-gradient-2"/>
    <radialGradient id="radial-gradient-8" cx="361.17" cy="-299.36" fx="361.17" fy="-299.36" r="6.74" xlink:href="#radial-gradient-2"/>
    <radialGradient id="radial-gradient-9" cx="11753.22" cy="-94117.97" fx="11753.22" fy="-94117.97" r="2.06" gradientTransform="translate(31403.74 247728.33) rotate(179.98) scale(2.66 -2.63)" gradientUnits="userSpaceOnUse">
      <stop offset="0" stop-color="#ffef0c"/>
      <stop offset=".12" stop-color="#d2c509"/>
      <stop offset=".3" stop-color="#938a06"/>
      <stop offset=".47" stop-color="#5e5804"/>
      <stop offset=".64" stop-color="#353202"/>
      <stop offset=".78" stop-color="#181601"/>
      <stop offset=".91" stop-color="#060500"/>
      <stop offset="1" stop-color="#000"/>
    </radialGradient>
    <radialGradient id="radial-gradient-10" cx="11753.22" cy="-94118.02" fx="11753.22" fy="-94118.02" r="1.52" gradientTransform="translate(31403.61 247728.46) rotate(179.98) scale(2.66 -2.63)" gradientUnits="userSpaceOnUse">
      <stop offset="0" stop-color="#ff0d0d"/>
      <stop offset=".12" stop-color="#d20a0a"/>
      <stop offset=".3" stop-color="#930707"/>
      <stop offset=".47" stop-color="#5e0404"/>
      <stop offset=".64" stop-color="#350202"/>
      <stop offset=".78" stop-color="#180101"/>
      <stop offset=".91" stop-color="#060000"/>
      <stop offset="1" stop-color="#000"/>
    </radialGradient>
    <radialGradient id="radial-gradient-11" cx="11753.22" cy="-94118.02" fx="11753.22" fy="-94118.02" r="1.12" gradientTransform="translate(31403.61 247728.46) rotate(179.98) scale(2.66 -2.63)" gradientUnits="userSpaceOnUse">
      <stop offset="0" stop-color="#fff"/>
      <stop offset=".12" stop-color="#d2d2d2"/>
      <stop offset=".3" stop-color="#939393"/>
      <stop offset=".47" stop-color="#5e5e5e"/>
      <stop offset=".64" stop-color="#353535"/>
      <stop offset=".78" stop-color="#181818"/>
      <stop offset=".91" stop-color="#060606"/>
      <stop offset="1" stop-color="#000"/>
    </radialGradient>
    <radialGradient id="radial-gradient-12" cx="11748.91" cy="-94116.4" fx="11748.91" fy="-94116.4" r="1.29" gradientTransform="translate(31396.96 247712.96) rotate(179.98) scale(2.66 -2.63)" xlink:href="#radial-gradient-9"/>
    <radialGradient id="radial-gradient-13" cx="11748.91" cy="-94116.44" fx="11748.91" fy="-94116.44" r=".95" gradientTransform="translate(31396.88 247713.04) rotate(179.98) scale(2.66 -2.63)" xlink:href="#radial-gradient-10"/>
    <radialGradient id="radial-gradient-14" cx="11748.91" cy="-94116.44" fx="11748.91" fy="-94116.44" r=".7" gradientTransform="translate(31396.88 247713.04) rotate(179.98) scale(2.66 -2.63)" xlink:href="#radial-gradient-11"/>
    <radialGradient id="radial-gradient-15" cx="11751.56" cy="-94114.13" fx="11751.56" fy="-94114.13" r="3.46" gradientTransform="translate(31409.63 247714.31) rotate(179.98) scale(2.66 -2.63)" xlink:href="#radial-gradient-9"/>
    <radialGradient id="radial-gradient-16" cx="11751.56" cy="-94114.21" fx="11751.56" fy="-94114.21" r="2.55" gradientTransform="translate(31409.41 247714.52) rotate(179.98) scale(2.66 -2.63)" xlink:href="#radial-gradient-10"/>
    <radialGradient id="radial-gradient-17" cx="11751.56" cy="-94114.21" fx="11751.56" fy="-94114.21" r="1.88" gradientTransform="translate(31409.41 247714.52) rotate(179.98) scale(2.66 -2.63)" xlink:href="#radial-gradient-11"/>
    <filter id="luminosity-noclip" x="20.37" y="-7548.04" width="13.14" height="32766" color-interpolation-filters="sRGB" filterUnits="userSpaceOnUse">
      <feFlood flood-color="#fff" result="bg"/>
      <feBlend in="SourceGraphic" in2="bg"/>
    </filter>
    <mask id="mask-1" x="20.37" y="-7548.04" width="13.14" height="32766" maskUnits="userSpaceOnUse"/>
    <linearGradient id="_åçûìßííûé_ãðàäèåíò_156" data-name="åçûìßííûé ãðàäèåíò 156" x1="37.81" y1="-375.8" x2="38.55" y2="-370.31" gradientTransform="translate(-481.82 -38.82) rotate(90) scale(1.15 1.36)" gradientUnits="userSpaceOnUse">
      <stop offset="0" stop-color="#fff"/>
      <stop offset="1" stop-color="#000"/>
    </linearGradient>
    <mask id="mask" x="20.37" y="1.55" width="13.14" height="7.35" maskUnits="userSpaceOnUse">
      <g class="cls-39">
        <ellipse class="cls-11" cx="26.94" cy="5.23" rx="3.66" ry="6.58" transform="translate(20.28 31.85) rotate(-86.92)"/>
      </g>
    </mask>
    <linearGradient id="linear-gradient-2" x1="37.81" y1="-375.8" x2="38.55" y2="-370.31" gradientTransform="translate(-481.82 -38.82) rotate(90) scale(1.15 1.36)" gradientUnits="userSpaceOnUse">
      <stop offset="0" stop-color="#ba52ff"/>
      <stop offset="1" stop-color="#fff"/>
    </linearGradient>
    <filter id="luminosity-noclip-2" x="21.74" y="-7548.04" width="10.69" height="32766" color-interpolation-filters="sRGB" filterUnits="userSpaceOnUse">
      <feFlood flood-color="#fff" result="bg"/>
      <feBlend in="SourceGraphic" in2="bg"/>
    </filter>
    <mask id="mask-3" x="21.74" y="-7548.04" width="10.69" height="32766" maskUnits="userSpaceOnUse"/>
    <linearGradient id="_åçûìßííûé_ãðàäèåíò_156-2" data-name="åçûìßííûé ãðàäèåíò 156" x1="512.11" y1="-2241.58" x2="512.72" y2="-2237.11" gradientTransform="translate(3080.98 613.36) rotate(-90) scale(1.15 1.36)" xlink:href="#_åçûìßííûé_ãðàäèåíò_156"/>
    <mask id="mask-2" x="21.74" y="18.94" width="10.69" height="5.98" maskUnits="userSpaceOnUse">
      <g class="cls-38">
        <ellipse class="cls-12" cx="27.08" cy="21.93" rx="2.98" ry="5.35" transform="translate(3.52 47.61) rotate(-86.47)"/>
      </g>
    </mask>
    <linearGradient id="linear-gradient-3" x1="512.11" y1="-2241.58" x2="512.72" y2="-2237.11" gradientTransform="translate(3080.98 613.36) rotate(-90) scale(1.15 1.36)" xlink:href="#linear-gradient-2"/>
    <radialGradient id="radial-gradient-18" cx="42.44" cy="-23.32" fx="42.44" fy="-23.32" r="19.65" gradientTransform="translate(-17.06 31.48) rotate(5.28)" gradientUnits="userSpaceOnUse">
      <stop offset="0" stop-color="#ffd182"/>
      <stop offset=".25" stop-color="#f6aca4"/>
      <stop offset=".76" stop-color="#e766e5"/>
      <stop offset="1" stop-color="#e14bff"/>
    </radialGradient>
    <linearGradient id="linear-gradient-4" x1="961.43" y1="-382.78" x2="963.23" y2="-379.33" gradientTransform="translate(-841.68 -525.54) rotate(52.39)" gradientUnits="userSpaceOnUse">
      <stop offset=".58" stop-color="#fff"/>
      <stop offset="1" stop-color="#f7f7f7" stop-opacity="0"/>
    </linearGradient>
    <linearGradient id="linear-gradient-5" x1="962.99" y1="-383.07" x2="963.43" y2="-380.73" gradientTransform="translate(-841.68 -525.54) rotate(52.39)" gradientUnits="userSpaceOnUse">
      <stop offset=".48" stop-color="#fff"/>
      <stop offset="1" stop-color="#f7f7f7" stop-opacity="0"/>
    </linearGradient>
    <linearGradient id="linear-gradient-6" x1="847.64" y1="-1395.91" x2="847.8" y2="-1395.05" gradientTransform="translate(896.26 -1392.83) rotate(-180)" xlink:href="#linear-gradient-5"/>
    <linearGradient id="linear-gradient-7" x1="847.35" y1="-1395.39" x2="847.43" y2="-1394.93" gradientTransform="translate(895.45 -1392.6) rotate(-180)" xlink:href="#linear-gradient-5"/>
    <linearGradient id="linear-gradient-8" x1="964.55" y1="-376.99" x2="963.24" y2="-379.04" gradientTransform="translate(-841.68 -525.54) rotate(52.39)" gradientUnits="userSpaceOnUse">
      <stop offset=".13" stop-color="#fffda1"/>
      <stop offset="1" stop-color="#f7c82f" stop-opacity="0"/>
    </linearGradient>
  </defs>
  <g class="cls-36">
    <g id="Layer_2" data-name="Layer 2">
      <g id="Layer_1-2" data-name="Layer 1">
        <g>
          <g>
            <g>
              <g>
                <path class="cls-34" d="M40.16,12.41c-.08-1.05-.29-2.09-.63-3.09-.24-.69-.54-1.36-.9-2-.21-.38-.45-.76-.71-1.12-.58-.82-1.26-1.59-2.06-2.28-.55-.48-1.14-.89-1.74-1.25-.66-.4-1.35-.73-2.06-.99-.37-.14-.75-.26-1.13-.37-.74-.2-1.48-.32-2.24-.39-.84-.07-1.69-.05-2.53.05-.37.04-.73.1-1.09.18-.78.16-1.54.4-2.28.71-.43.18-.86.37-1.27.6-.94.52-1.81,1.17-2.61,1.95-.26.26-.52.53-.77.81-.06.07-.12.15-.19.23-.86,1.05-1.52,2.2-1.99,3.4-.63,1.61-.91,3.31-.85,5,0,.26.02.52.05.78.03.27.06.55.11.82-.03.04-.06.09-.09.13.48,2.77,1.89,5.4,4.19,7.38,5.28,4.55,13.25,3.96,17.8-1.32,2.28-2.65,3.27-5.97,3.03-9.19-.01,0-.03-.02-.04-.02Z"/>
                <path class="cls-35" d="M27.7.87c.33,0,.67.01,1,.04.75.06,1.5.19,2.24.39.38.1.76.23,1.13.37.71.26,1.39.59,2.06.99.6.36,1.19.78,1.74,1.25.8.69,1.48,1.46,2.06,2.28.26.36.49.74.71,1.12.36.65.66,1.31.9,2,.35,1,.55,2.04.63,3.09.01,0,.03.02.04.02.24,3.23-.75,6.55-3.03,9.19-2.5,2.9-6.02,4.38-9.57,4.38-2.92,0-5.85-1.01-8.24-3.06-2.3-1.98-3.71-4.61-4.19-7.38.03-.04.06-.08.09-.13-.04-.27-.08-.54-.11-.82-.02-.26-.04-.52-.05-.78-.06-1.69.23-3.39.85-5,.47-1.2,1.13-2.35,1.99-3.4.06-.08.12-.15.19-.23.25-.29.5-.56.77-.81.8-.78,1.68-1.43,2.61-1.95.41-.23.84-.43,1.27-.6.74-.31,1.5-.55,2.28-.71.36-.07.73-.14,1.09-.18.51-.06,1.02-.09,1.53-.09M27.7,0c-.54,0-1.09.03-1.64.1-.37.04-.77.11-1.17.19-.81.17-1.63.42-2.44.76-.52.21-.96.43-1.36.65-1.02.57-1.96,1.27-2.8,2.08-.28.28-.56.57-.82.87-.05.05-.09.11-.14.16l-.06.08c-.9,1.1-1.62,2.32-2.13,3.63-.67,1.71-.97,3.51-.91,5.35,0,.28.02.55.05.83.02.19.04.38.07.57-.05.14-.06.29-.04.44.53,3.06,2.13,5.86,4.48,7.89,2.45,2.11,5.58,3.27,8.81,3.27,3.93,0,7.66-1.71,10.23-4.68,2.36-2.74,3.51-6.23,3.24-9.83,0-.09-.03-.18-.06-.26-.1-1.08-.32-2.11-.66-3.08-.25-.72-.57-1.44-.96-2.14-.22-.4-.48-.8-.76-1.2-.64-.9-1.38-1.73-2.21-2.44-.57-.49-1.2-.95-1.86-1.34-.7-.42-1.44-.78-2.2-1.06-.43-.16-.82-.29-1.21-.39-.77-.21-1.57-.35-2.39-.41-.35-.03-.71-.04-1.07-.04h0Z"/>
              </g>
              <g>
                <path class="cls-21" d="M33.52,2.28c-.11-.06-.22-.12-.33-.17-.53-.25-1.07-.47-1.62-.65-.33-.11-.66-.2-1-.28-.34-.08-.68-.14-1.02-.19,1.05.95,2.65,1.62,3.97,1.29Z"/>
                <path class="cls-20" d="M35.33,3.42c-.21-.16-.42-.31-.64-.45-.38-.25-.78-.48-1.18-.69-1.32.33-2.92-.34-3.97-1.29-.08-.01-.15-.03-.23-.04-.65-.08-1.3-.11-1.95-.09,1.28,2.81,5.1,3.77,7.96,2.56Z"/>
                <path class="cls-43" d="M31.7,7.15c2.01.03,4.3-.27,6.08-1.26-.17-.22-.34-.44-.52-.66-.12-.14-.25-.28-.38-.42-.18-.19-.37-.37-.56-.56-3.8,1.77-9.09.45-10.79-3.2-.3.05-.6.12-.89.19.75,3.31,4.1,5.53,7.06,5.9Z"/>
                <path class="cls-19" d="M38.08,6.32c-.1-.14-.2-.28-.3-.42-1.78.99-4.08,1.29-6.08,1.26-2.96-.37-6.31-2.59-7.06-5.9-.15.04-.3.07-.45.12-.38.11-.75.25-1.11.39-.26.1-.51.22-.76.34-.08.04-.16.08-.24.12,3.09,5.45,10.49,7.24,16,4.1Z"/>
                <path class="cls-22" d="M39.07,8.06c-.27-.57-.57-1.12-.93-1.65-.02-.03-.04-.06-.06-.09-5.51,3.14-12.91,1.36-16-4.1-.38.19-.75.4-1.11.63-.14.09-.28.19-.42.29,3.95,5.92,12.54,8.5,18.52,4.92Z"/>
                <path class="cls-17" d="M39.7,9.7c-.16-.52-.35-1.03-.57-1.53-.02-.04-.04-.07-.05-.11-5.98,3.58-14.57,1-18.52-4.92-.1.07-.2.14-.3.21-.32.24-.62.5-.92.77,4.36,6.33,13.03,7.74,20.38,5.58Z"/>
                <path class="cls-43" d="M40.24,12.83c0-.05,0-.1,0-.15-.02-.41-.07-.81-.13-1.21-7.73,2.92-17.67.82-22.28-5.72-.1.13-.2.26-.3.4-.19.27-.37.54-.53.82-.11.19-.22.38-.32.57,5.43,6.42,15.73,8.25,23.56,5.3Z"/>
                <path class="cls-22" d="M40.19,14.53c.05-.56.07-1.13.05-1.7-7.82,2.95-18.13,1.12-23.56-5.3-.08.15-.16.3-.23.45-.22.46-.41.93-.57,1.41-.01.03-.02.07-.03.1,4.11,5.29,10.7,6.97,17.14,6.5,2.2-.31,4.82-.65,7.2-1.46Z"/>
                <path class="cls-16" d="M39.36,18c.21-.52.39-1.05.52-1.59.13-.51.23-1.03.29-1.55.01-.11.02-.23.03-.34-2.39.81-5,1.15-7.2,1.46-6.44.48-13.03-1.21-17.14-6.5-.11.35-.21.7-.29,1.05-.11.47-.18.94-.23,1.41,6,6.94,15.43,8.27,24.03,6.05Z"/>
                <path class="cls-15" d="M37.3,21.46c.53-.63.99-1.3,1.38-1.99.1-.17.19-.35.27-.53-7.51,3.65-17.72.94-23.68-4.88.02.3.04.61.08.91.06.44.15.88.25,1.32,5.66,5.26,13.3,6.95,20.83,6.1.28-.27.55-.54.8-.84.02-.03.05-.06.07-.09Z"/>
                <path class="cls-22" d="M15.59,16.29c.05.2.09.4.15.59.17.59.39,1.18.65,1.74.04.1.1.19.14.29,5.16,3.78,12.19,6.09,18.22,4.84.59-.4,1.15-.85,1.68-1.36-7.53.85-15.17-.84-20.83-6.1Z"/>
                <path class="cls-14" d="M23.07,24.99c1.8.73,3.73,1,5.62.86-3.06-.35-5.96-1.95-8.95-2.86,1.03.86,2.15,1.53,3.33,2Z"/>
                <path class="cls-18" d="M16.53,18.91c.2.41.43.82.68,1.21,4.36,3.06,9.39,4.75,14.61,5.09.96-.33,1.88-.77,2.74-1.33.06-.04.13-.09.19-.13-6.03,1.25-13.06-1.06-18.22-4.84Z"/>
              </g>
            </g>
            <g>
              <ellipse class="cls-2" cx="21.18" cy="15.57" rx="5.48" ry="5.42" transform="translate(4.53 35.92) rotate(-87.04)"/>
              <ellipse class="cls-8" cx="21.05" cy="15.57" rx="4.05" ry="4" transform="translate(4.41 35.78) rotate(-87.04)"/>
              <ellipse class="cls-9" cx="21.05" cy="15.57" rx="2.97" ry="2.94" transform="translate(4.41 35.78) rotate(-87.04)"/>
            </g>
            <g>
              <ellipse class="cls-4" cx="25.88" cy="4.31" rx="3.43" ry="3.4" transform="translate(20.24 29.94) rotate(-87.04)"/>
              <ellipse class="cls-5" cx="25.8" cy="4.31" rx="2.53" ry="2.51" transform="translate(20.16 29.85) rotate(-87.04)"/>
              <ellipse class="cls-6" cx="25.8" cy="4.31" rx="1.86" ry="1.84" transform="translate(20.16 29.85) rotate(-87.04)"/>
            </g>
            <g>
              <ellipse class="cls-10" cx="31.51" cy="11.66" rx="9.21" ry="9.11" transform="translate(18.23 42.53) rotate(-87.04)"/>
              <ellipse class="cls-3" cx="31.28" cy="11.65" rx="6.8" ry="6.72" transform="translate(18.03 42.29) rotate(-87.04)"/>
              <ellipse class="cls-7" cx="31.28" cy="11.65" rx="4.99" ry="4.94" transform="translate(18.03 42.29) rotate(-87.04)"/>
            </g>
          </g>
          <g class="cls-32">
            <g class="cls-1">
              <ellipse class="cls-28" cx="26.94" cy="5.23" rx="3.66" ry="6.58" transform="translate(20.28 31.85) rotate(-86.92)"/>
            </g>
            <path class="cls-33" d="M30.14,3.42c-.02.39-1.25.65-2.74.56-1.49-.08-2.69-.46-2.67-.86.02-.39,1.25-.65,2.74-.56s2.69.46,2.67.86Z"/>
          </g>
          <g class="cls-32">
            <g class="cls-37">
              <ellipse class="cls-29" cx="27.08" cy="21.93" rx="2.98" ry="5.35" transform="translate(3.52 47.61) rotate(-86.47)"/>
            </g>
            <path class="cls-33" d="M24.46,23.38c.02-.32,1.02-.52,2.23-.44,1.21.08,2.18.39,2.16.71-.02.32-1.02.52-2.23.44s-2.18-.39-2.16-.71Z"/>
          </g>
          <g>
            <g>
              <path class="cls-41" d="M54.35,18.14c-.66,2.11-13.36,1.89-28.36-.5C14.79,15.85,5.46,13.36,1.75,11.33c-1.24-.67-1.85-1.29-1.71-1.82,0,0,0-.02,0-.02.46-1.47,6.72-1.81,15.52-1.08-.16.24-.35.53-.53.85-.14.26-.28.54-.4.84-2.87,0-4.71.31-4.91.93-.43,1.36,7.05,3.71,16.7,5.25,9.65,1.54,17.81,1.68,18.24.32.19-.61-1.23-1.43-3.73-2.28.05-.55.06-1.25-.08-1.89.62.15,1.21.3,1.79.44,7.42,1.89,12.12,3.9,11.69,5.27Z"/>
              <path class="cls-13" d="M54.37,18.15c-.62,1.05-2.13,1.03-3.2,1.26-3.52.39-7.08.23-10.61.02-9.42-.64-18.78-2.11-27.95-4.36C10.31,14.4-.14,11.97,0,9.48c1.62-2.42,12.55-1.29,15.58-1.17.07,0,.11.09.07.15,0,0-.5.82-.5.82-.18.26-.29.8-.51.92-1.42.03-2.89.02-4.24.46-.21.08-.43.19-.52.35.26,2.37,14.02,4.7,16.62,5.13,2.53.4,17.35,2.51,18.06.25-.78-1.12-2.42-1.47-3.64-1.99-.04-.01-.07-.05-.06-.1.06-.62.06-1.25-.06-1.86-.02-.06.04-.11.1-.1,2.44.6,4.88,1.26,7.27,2.06,2.04.75,4.27,1.38,5.91,2.87.19.24.4.54.3.87h0ZM54.34,18.14c.07-1.76-4.79-3.08-6.22-3.64-2.39-.78-4.83-1.41-7.27-1.99,0,0,.1-.1.1-.1.14.63.14,1.28.09,1.91l-.06-.1c.91.31,1.82.64,2.68,1.1,4.19,2.54-4.38,2.4-5.72,2.31-7.69-.4-15.35-1.6-22.77-3.65-5.42-1.45-8.93-4.01-.52-4,0,0-.1.07-.1.07.21-.53.64-1.22.95-1.71,0,0,.07.15.07.15-2.64-.22-5.28-.39-7.92-.39-1.98.01-3.98.03-5.91.47-.61.17-1.34.35-1.63.92.41,5.36,51.33,13.31,54.24,8.64h0Z"/>
            </g>
            <path class="cls-27" d="M48.48,17.14c-1.47.72-5.95,1.72-20.8-.18-14.84-1.91-17.85-4.52-19.2-5.48-.81-.58-4.18-.39-6.73-.15-1.24-.67-1.85-1.29-1.71-1.82,2.49.35,5.75.72,6.73.43,1.21-.35,5.85-.58,8.27-.68-.14.26-.28.54-.4.84-2.87,0-4.71.31-4.91.93-.43,1.36,7.05,3.71,16.7,5.25,9.65,1.54,17.81,1.68,18.24.32.19-.61-1.23-1.43-3.73-2.28.05-.55.06-1.25-.08-1.89.62.15,1.21.3,1.79.44-.1.15-.12.29-.04.41.63.89,7.32,3.13,5.86,3.85Z"/>
          </g>
          <g class="cls-32">
            <ellipse class="cls-33" cx="50.28" cy="17.93" rx=".84" ry="1.3" transform="translate(27.8 66.35) rotate(-84.72)"/>
            <ellipse class="cls-33" cx="50" cy="16.59" rx=".29" ry=".64" transform="translate(28.87 64.85) rotate(-84.72)"/>
          </g>
          <g class="cls-32">
            <ellipse class="cls-33" cx="7.61" cy="12.62" rx=".53" ry=".82" transform="translate(-5.66 19.03) rotate(-84.72)"/>
            <ellipse class="cls-33" cx="7.43" cy="11.77" rx=".19" ry=".41" transform="translate(-4.97 18.08) rotate(-84.72)"/>
          </g>
        </g>
        <g>
          <g>
            <path class="cls-42" d="M47.83,9.21c-.29,0-.54-.13-.72-.36l-1.16-1.45s-1.89.14-1.89.14c-.42,0-.72-.18-.88-.48-.16-.31-.12-.67.1-.96l1.09-1.46-.59-1.55c-.16-.4.04-.85.45-1.05.04-.02.08-.03.12-.04.09-.03.2-.05.3-.05.08,0,.16,0,.24.03l1.66.44,1.31-1c.15-.12.33-.18.53-.18.1,0,.2.02.3.05.34.11.57.39.6.72l.12,1.59,1.49.87c.22.13.38.33.43.58.05.23.01.47-.12.66-.08.14-.22.25-.4.32l-1.64.63-.4,1.78c-.1.44-.48.75-.93.75Z"/>
            <path class="cls-40" d="M48.38,1.4c.08,0,.17.01.25.04.26.08.47.3.49.59l.12,1.67,1.56.91c.39.23.48.7.27,1.02-.07.12-.18.21-.32.27l-1.72.66-.42,1.87c-.09.39-.43.63-.77.63-.22,0-.44-.09-.6-.3l-1.22-1.52-1.97.15s-.04,0-.06,0c-.63,0-.97-.68-.59-1.2l1.14-1.53-.62-1.63c-.14-.35.06-.7.37-.85.03-.01.06-.03.09-.04.08-.03.17-.04.26-.04.06,0,.13,0,.2.03l1.74.46,1.37-1.04c.13-.1.28-.15.43-.15M48.38,1.09c-.23,0-.44.07-.62.21l-1.24.95-1.59-.42c-.09-.02-.18-.04-.28-.04-.12,0-.25.02-.36.06-.02,0-.07.02-.12.04-.5.23-.73.77-.54,1.25l.56,1.47-1.04,1.4c-.25.34-.29.77-.11,1.13.18.35.54.57.95.57.03,0,.06,0,.09,0l1.8-.14,1.11,1.39c.21.26.52.41.85.41.52,0,.97-.36,1.08-.87l.38-1.7,1.56-.6c.21-.09.38-.22.48-.4.14-.21.19-.5.13-.77-.07-.29-.25-.53-.51-.68l-1.42-.83-.11-1.51c-.03-.4-.31-.74-.71-.86-.1-.04-.22-.06-.34-.06h0Z"/>
          </g>
          <path class="cls-26" d="M47.23,8.75l-1.22-1.52-1.97.15c-.67.05-1.05-.66-.65-1.2l1.14-1.53-.62-1.63c-.14-.35.06-.7.37-.85.03-.01.06-.03.09-.04.07.93.41,2.62,1.97,3.61,1.59,1.02,3.67.34,4.72-.13-.07.12-.18.21-.32.27l-1.72.66-.42,1.87c-.14.64-.96.85-1.37.33Z"/>
          <path class="cls-30" d="M44.87,4.71s-.86-1.8-.6-2.2,2.28.38,2.41.35,1.5-1.43,1.9-1.25.28,1.87.44,2.15,2.07.86,2.01,1.48-2.16,1.23-2.16,1.23c0,0-.45,2.03-.77,2.3s-1.84-1.52-2.08-1.78-2.11.47-2.42-.03,1.27-2.26,1.27-2.26Z"/>
          <path class="cls-31" d="M47.57,2.13s.82-.76,1.11-.4.24,1.85.39,2.06,1.64.9,1.87,1.2-.09.58-.09.58c0,0,.05-.2-.11-.47s-1.59-.74-1.9-1.1-.08-1.56-.32-2.02-.93.15-.93.15Z"/>
          <ellipse class="cls-25" cx="48.62" cy="3.08" rx=".55" ry=".29" transform="translate(45.28 51.69) rotate(-89.69)"/>
          <ellipse class="cls-24" cx="48.1" cy="2.79" rx=".24" ry=".16" transform="translate(45.06 50.87) rotate(-89.69)"/>
          <path class="cls-23" d="M44.87,4.71s-1.32,1.52-1.39,1.92.26.61,1,.51,1.59-.16,1.61-.13,1.24,1.61,1.57,1.8.7-.2.79-.36.49-1.97.49-1.97"/>
        </g>
      </g>
    </g>
  </g>
</svg>