<?xml version="1.0" encoding="UTF-8"?>
<svg xmlns="http://www.w3.org/2000/svg" viewBox="0 0 28.21 4.88">
  <defs>
    <style>
      .cls-1 {
        fill: #fff;
        mix-blend-mode: overlay;
        opacity: .5;
      }

      .cls-2 {
        fill: #59514f;
      }

      .cls-3 {
        fill: #a09290;
      }

      .cls-4 {
        isolation: isolate;
      }
    </style>
  </defs>
  <g class="cls-4">
    <g id="Layer_2" data-name="Layer 2">
      <g id="Layer_1-2" data-name="Layer 1">
        <g>
          <g>
            <path class="cls-3" d="M24.67,4.62c-1.21,0-2.32-.43-2.9-1.12-.01-.02-.03-.03-.03-.05-.24-.31-.37-.65-.37-1,0-1.22,1.45-2.18,3.3-2.18s3.29.98,3.29,2.18c0,.53-.29,1.04-.81,1.45-.64.47-1.54.73-2.48.73Z"/>
            <path class="cls-2" d="M24.67.52c1.67,0,3.03.86,3.03,1.92,0,.47-.27.9-.71,1.24-.56.41-1.39.68-2.32.68-1.17,0-2.19-.42-2.7-1.03h0c-.22-.28-.34-.57-.34-.89,0-1.06,1.36-1.92,3.04-1.92M24.67,0c-1.99,0-3.56,1.07-3.56,2.44,0,.41.14.79.41,1.15.01.03.03.05.05.07.63.75,1.81,1.22,3.1,1.22.99,0,1.95-.28,2.63-.78.6-.46.92-1.05.92-1.66,0-1.37-1.56-2.44-3.55-2.44h0Z"/>
          </g>
          <path class="cls-1" d="M27.7,2.44c0,.47-.27.9-.71,1.24.71-1.09.55-2.77-2.32-2.76-2.92,0-2.72,2.23-2.7,2.4-.22-.27-.34-.56-.34-.88,0-1.06,1.36-1.92,3.04-1.92s3.03.86,3.03,1.92Z"/>
        </g>
        <g>
          <g>
            <path class="cls-3" d="M3.56,4.62c-1.21,0-2.32-.43-2.9-1.12-.01-.02-.03-.03-.03-.05-.24-.31-.37-.65-.37-1C.26,1.22,1.71.26,3.56.26s3.29.98,3.29,2.18c0,.53-.29,1.04-.81,1.45-.64.47-1.54.73-2.48.73Z"/>
            <path class="cls-2" d="M3.56.52c1.67,0,3.03.86,3.03,1.92,0,.47-.27.9-.71,1.24-.56.41-1.39.68-2.32.68-1.17,0-2.19-.42-2.7-1.03h0c-.22-.28-.34-.57-.34-.89C.52,1.38,1.88.52,3.56.52M3.56,0C1.56,0,0,1.07,0,2.44c0,.41.14.79.41,1.15.01.03.03.05.05.07.63.75,1.81,1.22,3.1,1.22.99,0,1.95-.28,2.63-.78.6-.46.92-1.05.92-1.66,0-1.37-1.56-2.44-3.55-2.44h0Z"/>
          </g>
          <path class="cls-1" d="M6.59,2.44c0,.47-.27.9-.71,1.24.71-1.09.55-2.77-2.32-2.76-2.92,0-2.72,2.23-2.7,2.4-.22-.27-.34-.56-.34-.88C.52,1.38,1.88.52,3.56.52s3.03.86,3.03,1.92Z"/>
        </g>
      </g>
    </g>
  </g>
</svg>