<?xml version="1.0" encoding="UTF-8"?>
<svg xmlns="http://www.w3.org/2000/svg" xmlns:xlink="http://www.w3.org/1999/xlink" viewBox="0 0 27.14 36.91">
  <defs>
    <style>
      .cls-1 {
        fill: #fff;
      }

      .cls-1, .cls-2 {
        mix-blend-mode: overlay;
        opacity: .64;
      }

      .cls-3 {
        fill: url(#linear-gradient);
      }

      .cls-4 {
        isolation: isolate;
      }

      .cls-5 {
        fill: #9e8c86;
      }

      .cls-6 {
        fill: #b2a19b;
      }

      .cls-7 {
        fill: #382537;
      }

      .cls-2 {
        fill: url(#linear-gradient-2);
      }

      .cls-8 {
        fill: #6c5d59;
      }
    </style>
    <linearGradient id="linear-gradient" x1="-9.27" y1="7.26" x2="16.52" y2="25.33" gradientUnits="userSpaceOnUse">
      <stop offset=".1" stop-color="#9a8897"/>
      <stop offset="1" stop-color="#4d324b"/>
    </linearGradient>
    <linearGradient id="linear-gradient-2" x1="9.7" y1="20.56" x2="16.58" y2="20.87" gradientUnits="userSpaceOnUse">
      <stop offset="0" stop-color="#fff"/>
      <stop offset=".1" stop-color="#fff" stop-opacity=".81"/>
      <stop offset=".24" stop-color="#fff" stop-opacity=".6"/>
      <stop offset=".37" stop-color="#fff" stop-opacity=".41"/>
      <stop offset=".5" stop-color="#fff" stop-opacity=".26"/>
      <stop offset=".63" stop-color="#fff" stop-opacity=".15"/>
      <stop offset=".76" stop-color="#fff" stop-opacity=".07"/>
      <stop offset=".88" stop-color="#fff" stop-opacity=".02"/>
      <stop offset="1" stop-color="#fff" stop-opacity="0"/>
    </linearGradient>
  </defs>
  <g class="cls-4">
    <g id="Layer_2" data-name="Layer 2">
      <g id="Layer_1-2" data-name="Layer 1">
        <g>
          <g>
            <path class="cls-3" d="M6.38,36.41c-.33,0-.47-.03-.58-.08-.69-.32-1.61-1.94-1.87-2.43-.86-1.61-2.92-6.1-3.36-13.04C.01,11.96,2.65,1.58,5.71.67c.38-.11.72-.17,1.04-.17,1.09,0,1.75.65,2.66,1.56.76.75,1.8,1.79,3.55,2.91,4.34,2.77,12.46,8.37,12.54,8.43.09.06.16.16.19.27.13.42.23.82.32,1.22,0,.02.02.04.02.07,1.29,5.31.49,9.84-2.37,13.48-5.19,6.6-15.48,7.98-17.29,7.98Z"/>
            <path class="cls-7" d="M6.74,1c1.69,0,2.15,1.97,5.95,4.39,4.38,2.8,12.53,8.42,12.53,8.42.13.43.24.84.33,1.25h.01c4.26,17.56-16.1,20.86-19.18,20.86-.19,0-.32-.01-.36-.04-.3-.14-.93-.89-1.65-2.22-1.31-2.44-2.92-6.82-3.3-12.83C.49,11.57,3.34,1.9,5.85,1.15c.34-.1.63-.15.89-.15M6.74,0h0c-.36,0-.75.06-1.18.19C1.97,1.26-.46,12.47.07,20.89c.44,7.03,2.54,11.6,3.42,13.24.45.84,1.33,2.29,2.11,2.65.19.09.42.13.79.13,1.85,0,12.38-1.42,17.69-8.18,2.96-3.76,3.78-8.44,2.46-13.9,0-.03-.02-.07-.03-.1-.09-.38-.19-.78-.32-1.21-.07-.22-.2-.41-.39-.53-.08-.06-8.21-5.66-12.56-8.44-1.71-1.09-2.68-2.06-3.47-2.84-.96-.95-1.71-1.71-3.02-1.71h0Z"/>
          </g>
          <path class="cls-1" d="M25.55,15.06c-.43-.28-13.61-9.08-15.24-10.24-1.66-1.18-2.2-3.19-4.18-2.81-1.98.38-7.81,14.83-1.78,31.59.01.02.01.04.02.06-1.31-2.44-2.92-6.82-3.3-12.83C.49,11.57,3.34,1.9,5.85,1.15c2.52-.75,2.45,1.44,6.84,4.24,4.38,2.8,12.53,8.42,12.53,8.42.13.43.24.84.33,1.25Z"/>
          <path class="cls-6" d="M22.88,29.49s-10.64,8.17-16.36,2.88c-.91-.84-1.65-2.12-2.21-3.67-.01,0-.01-.01-.01-.01C1.29,20.48,2.82,4.58,6.75,4.59c1.46,0,3.56,2.41,5.77,5.73,0,0,0,0,0,0,3.76,5.61,7.81,13.82,9.52,17.39.53,1.11.83,1.77.83,1.77Z"/>
          <path class="cls-5" d="M22.88,29.49s-10.64,8.17-16.36,2.88c-.91-.84-1.65-2.12-2.21-3.67,1.46,1.73,3.88,2.23,3.04-1.38-.94-4.12.44-3.45.6-4.15.16-.7-1.38-2.2-1.41-3.8-.03-1.59,1.21-.99,1.47-1.5s-2.04-3.41-1.82-4.6c.22-1.18,1.53-1.05,1.82-1.18.29-.12.16-.6-.37-2.29-.53-1.7.69-1.25.88-2.3s-1.77-2.91-1.77-2.91c1.46,0,3.56,2.41,5.77,5.73,0,0,0,0,0,0,3.76,5.61,7.81,13.82,9.52,17.39.53,1.11.83,1.77.83,1.77Z"/>
          <path class="cls-8" d="M22.05,27.72c-.22.91-.65,1.58-1.22,2.06-2.17,1.87-6.27,1.06-7.33,1.28-1.79.37-3.74-1.72-4.2-5.13-.46-3.4,1.44-2.99,1.44-2.99,0,0-1.81-2.12-1.59-3.46.22-1.31,1.65-1.32,1.69-1.32,0,0-1.86-2.06-1.8-3.59.06-1.53,1.65-2.43,1.65-2.43,0,0-1.81-2.12-1.09-2.94.36-.4,1.68.3,2.92,1.12,0,0,0,0,0,0,.36.53.71,1.09,1.07,1.66,3.44,5.46,6.9,12.5,8.45,15.73Z"/>
          <path class="cls-2" d="M22.05,27.72c-.22.91-.65,1.58-1.22,2.06-2.14.53-4.73.16-5.54.31-1.79.32-3.74-1.47-4.2-4.38-.46-2.91,1.44-2.56,1.44-2.56,0,0-1.81-1.81-1.59-2.95.22-1.12,1.65-1.13,1.69-1.13,0,0-1.86-1.76-1.8-3.07.06-1.3,1.65-2.07,1.65-2.07,0,0-1.81-1.81-1.09-2.51.29-.28,1.21.06,2.21.57,3.44,5.46,6.9,12.5,8.45,15.73Z"/>
          <path class="cls-7" d="M22.46,28.58l-3.27-6.03c-1.1-2-2.18-4-3.33-5.97-1.12-1.98-2.29-3.93-3.52-5.84-.6-.97-1.26-1.89-1.93-2.81-.34-.45-.67-.92-1.02-1.37-.37-.43-.74-.87-1.1-1.31,1.81,1.43,3.3,3.22,4.68,5.05,1.4,1.83,2.6,3.8,3.76,5.78,1.13,2,2.2,4.03,3.14,6.12.95,2.09,1.86,4.19,2.59,6.37Z"/>
        </g>
      </g>
    </g>
  </g>
</svg>