<?xml version="1.0" encoding="UTF-8"?>
<svg xmlns="http://www.w3.org/2000/svg" xmlns:xlink="http://www.w3.org/1999/xlink" viewBox="0 0 31.45 24.62">
  <defs>
    <style>
      .cls-1 {
        fill: #cebfb6;
      }

      .cls-2 {
        fill: none;
        stroke: #59514f;
        stroke-linecap: round;
        stroke-linejoin: round;
        stroke-width: .36px;
      }

      .cls-3 {
        fill: #ffe8e2;
      }

      .cls-4 {
        fill: #fff;
      }

      .cls-4, .cls-5, .cls-6 {
        mix-blend-mode: overlay;
      }

      .cls-4, .cls-6 {
        opacity: .5;
      }

      .cls-7 {
        fill: #59514f;
      }

      .cls-8 {
        fill: #a09290;
      }

      .cls-9 {
        fill: #d0c2b5;
      }

      .cls-10 {
        isolation: isolate;
      }

      .cls-11 {
        fill: #a1948f;
      }

      .cls-12 {
        fill: #2e0000;
      }

      .cls-13 {
        fill: #625c66;
      }

      .cls-14 {
        fill: #e56e8b;
      }

      .cls-5 {
        opacity: .3;
      }

      .cls-6 {
        fill: url(#linear-gradient);
      }

      .cls-15 {
        fill: #332f36;
      }
    </style>
    <linearGradient id="linear-gradient" x1="15.8" y1="4.2" x2="15.8" y2="11.62" gradientUnits="userSpaceOnUse">
      <stop offset="0" stop-color="#fff"/>
      <stop offset="1" stop-color="#fff" stop-opacity="0"/>
    </linearGradient>
  </defs>
  <g class="cls-10">
    <g id="Layer_2" data-name="Layer 2">
      <g id="Layer_1-2" data-name="Layer 1">
        <g>
          <g>
            <g>
              <path class="cls-13" d="M26.78,13.79c-2.25,0-6.93-7.09-7.45-7.9-.07-.11-.04-.26.07-.33,0,0,.36-.24.92-.61.01,0,.08-.04.09-.05,1.05-.7,2.88-1.9,4.36-2.85.85-.54,1.58-1.01,2-1.27.61-.37,1.11-.54,1.57-.54,1.02,0,1.79.82,2.48,2.67,1.02,2.72-.31,5.69-.94,6.66.06.24.16.81-.07,1.45-.12.33-.32.65-.59.93-.07.07-.14.13-.21.2,0,.2-.04.57-.32.91-.36.45-.99.69-1.86.73,0,0-.05,0-.05,0Z"/>
              <path class="cls-15" d="M28.34.48c.87,0,1.58.72,2.26,2.52,1.01,2.7-.38,5.67-.98,6.54,0,0,.24.65-.03,1.41-.1.27-.26.56-.53.84-.09.09-.18.17-.28.25,0,0,.23,1.41-1.95,1.51-.01,0-.03,0-.04,0-2.19,0-7.25-7.79-7.25-7.79,0,0,.36-.24.92-.61h0s0,0,.01,0c0,0,.01,0,.02-.01,1.1-.72,2.92-1.92,4.4-2.87.85-.54,1.58-1.01,2-1.27.53-.32,1.01-.51,1.45-.51M28.34,0c-.51,0-1.05.18-1.7.57-.43.26-1.16.73-2.01,1.28-1.48.96-3.3,2.15-4.4,2.87,0,0,0,0,0,0-.02,0-.04.02-.05.03-.56.37-.92.61-.92.61-.22.14-.28.44-.14.66.87,1.34,5.32,8.01,7.65,8.01,0,0,.06,0,.06,0,.94-.04,1.62-.32,2.03-.82.28-.34.36-.71.37-.95.05-.04.09-.09.14-.13.3-.31.52-.65.65-1.02.22-.62.16-1.18.1-1.48.7-1.13,1.94-4.04.91-6.79-.5-1.32-1.25-2.83-2.71-2.83h0Z"/>
            </g>
            <path class="cls-4" d="M20.5,5.13c.57-.34,6.63-3.96,7.9-4.12,1.33-.16,2.27,2.34,2.12,4.4-.14,2.07-1.14,4.19-1.14,4.19,0,0,.21.59,0,1.23-.12.37-.25.73-.33.96,1.01-1.04.57-2.25.57-2.25.6-.86,1.99-3.83.98-6.54C29.58.29,28.48.03,26.9.99c-1.18.72-4.68,3.01-6.4,4.14Z"/>
            <path class="cls-9" d="M24.27,9.49s.27.58.66,1.28c.57,1.03,1.4,2.32,2,2.4,1,.12,1.45-.86,1.45-.86l-.41-.12c1.4-.63,1.3-2.02,1.27-1.98s-.56.41-.62.46c.05-.08.1-.15.14-.24h0c1.29-2.2,1.73-5.83.92-7.34-.85-1.56-2.31-1.35-3.85.6-1.54,1.96-1.55,5.8-1.55,5.8Z"/>
            <path class="cls-11" d="M24.27,9.49s.27.58.66,1.28c.36.07.67,0,.67,0,0,0,.89-.25.96-.88.06-.64-.42-.87-.42-.87,0,0,1.18-.52.05-1.84,0,0,1.59-1.13.49-3.25,0,0,.73-1.33,1.57-.97.85.35,1.72,3.9.5,7.46h0c1.29-2.2,1.73-5.83.92-7.34-.85-1.56-2.31-1.35-3.85.6-1.54,1.96-1.55,5.8-1.55,5.8Z"/>
            <path class="cls-5" d="M19.53,5.76s5.13,7.89,7.29,7.79c2.17-.1,1.95-1.51,1.95-1.51.11-.08.2-.17.28-.25.27-.28.44-.57.53-.84-.94-.23-2.14-.79-3.09-2.21-1.31-1.95-1.56-4.93-1.6-6.49-1.48.96-3.31,2.15-4.4,2.87,0,0-.02,0-.02.01,0,0,0,0-.01,0h0c-.56.37-.92.61-.92.61Z"/>
          </g>
          <g>
            <g>
              <path class="cls-13" d="M4.61,13.79c-.87-.04-1.5-.28-1.86-.73-.28-.34-.32-.71-.32-.91-.07-.06-.14-.13-.21-.19-.27-.29-.47-.6-.59-.93-.23-.64-.13-1.21-.07-1.45-.63-.97-1.96-3.95-.94-6.66C1.31,1.07,2.08.24,3.1.24c.46,0,.96.17,1.57.54.42.26,1.16.73,2,1.27,1.48.96,3.31,2.15,4.4,2.88,0,0,.03.01.05.02.56.37.92.61.92.61.11.07.14.22.07.33-.53.81-5.2,7.9-7.45,7.9,0,0-.05,0-.05,0Z"/>
              <path class="cls-15" d="M3.1.48c.44,0,.92.18,1.45.51.42.26,1.15.73,2,1.27,1.48.96,3.31,2.15,4.4,2.87,0,0,.02,0,.02.01,0,0,0,0,.01,0h0c.56.37.92.61.92.61,0,0-5.06,7.79-7.25,7.79-.01,0-.03,0-.04,0-2.17-.1-1.95-1.51-1.95-1.51-.11-.08-.2-.17-.28-.25-.27-.28-.44-.57-.53-.84-.27-.76-.03-1.41-.03-1.41-.6-.86-1.99-3.83-.98-6.54C1.52,1.2,2.23.48,3.1.48M3.1,0C1.64,0,.89,1.51.39,2.83c-1.03,2.75.21,5.67.91,6.79-.06.31-.12.86.1,1.48.13.36.34.71.64,1.01.05.05.1.09.15.14.02.25.09.61.37.95.41.5,1.09.78,2.03.82,0,0,.06,0,.06,0,2.33,0,6.79-6.67,7.65-8.01.14-.22.08-.52-.14-.66,0,0-.36-.23-.92-.61-.02-.01-.04-.02-.05-.03-1.1-.72-2.92-1.92-4.4-2.87-.85-.55-1.58-1.01-2.01-1.27-.65-.39-1.19-.58-1.7-.58h0Z"/>
            </g>
            <path class="cls-4" d="M10.95,5.13c-.57-.34-6.63-3.96-7.9-4.12C1.72.85.78,3.34.92,5.41c.14,2.07,1.14,4.19,1.14,4.19,0,0-.21.59,0,1.23.12.37.25.73.33.96-1.01-1.04-.57-2.25-.57-2.25-.6-.86-1.99-3.83-.98-6.54C1.86.29,2.97.03,4.55.99c1.18.72,4.68,3.01,6.4,4.14Z"/>
            <path class="cls-9" d="M7.17,9.49s-.27.58-.66,1.28c-.57,1.03-1.4,2.32-2,2.4-1,.12-1.45-.86-1.45-.86l.41-.12c-1.4-.63-1.3-2.02-1.27-1.98s.56.41.62.46c-.05-.08-.1-.15-.14-.24h0c-1.29-2.2-1.73-5.83-.92-7.34.85-1.56,2.31-1.35,3.85.6,1.54,1.96,1.55,5.8,1.55,5.8Z"/>
            <path class="cls-11" d="M7.17,9.49s-.27.58-.66,1.28c-.36.07-.67,0-.67,0,0,0-.89-.25-.96-.88-.06-.64.42-.87.42-.87,0,0-1.18-.52-.05-1.84,0,0-1.59-1.13-.49-3.25,0,0-.73-1.33-1.57-.97-.85.35-1.72,3.9-.5,7.46h0c-1.29-2.2-1.73-5.83-.92-7.34.85-1.56,2.31-1.35,3.85.6,1.54,1.96,1.55,5.8,1.55,5.8Z"/>
            <path class="cls-5" d="M11.91,5.76s-5.13,7.89-7.29,7.79c-2.17-.1-1.95-1.51-1.95-1.51-.11-.08-.2-.17-.28-.25-.27-.28-.44-.57-.53-.84.94-.23,2.14-.79,3.09-2.21,1.31-1.95,1.56-4.93,1.6-6.49,1.48.96,3.31,2.15,4.4,2.87,0,0,.02,0,.02.01,0,0,0,0,.01,0h0c.56.37.92.61.92.61Z"/>
          </g>
          <g>
            <g>
              <path class="cls-8" d="M15.72,24.38c-.11,0-.22,0-.32,0-.04,0-.11-.01-.16-.03-1.18-.08-9.61-.88-11.15-6.42-1.87-6.71,4.71-11.05,6.05-11.85,2.56-1.53,4.87-1.65,5.52-1.65h.13c.65,0,2.96.12,5.52,1.65,1.34.8,7.92,5.14,6.05,11.85-1.52,5.46-9.73,6.31-11.1,6.42-.03.02-.07.04-.11.04h-.1c-.1,0-.21,0-.33,0Z"/>
              <path class="cls-7" d="M15.79,4.67c.61,0,2.88.11,5.4,1.62,2.95,1.77,7.5,6,5.94,11.58-1.33,4.79-8.15,6.06-10.98,6.25v.03s-.07,0-.1,0c-.09,0-.2,0-.32,0-.12,0-.22,0-.32,0-.04,0-.07,0-.1,0v-.03c-2.83-.19-9.65-1.46-10.98-6.25-1.56-5.58,2.99-9.81,5.94-11.58,2.52-1.51,4.79-1.62,5.4-1.62.02,0,.04,0,.06,0,.02,0,.04,0,.06,0M15.79,4.19h-.07s-.06,0-.06,0c-.66,0-3.03.12-5.65,1.69-7.78,4.66-6.49,10.91-6.15,12.12,1.55,5.55,9.73,6.46,11.26,6.59.05.03.11.04.18.04h.11c.1,0,.21,0,.33,0,.09,0,.2,0,.3,0h.11c.07,0,.13-.02.19-.04,1.56-.13,9.7-1.05,11.25-6.59.34-1.21,1.62-7.46-6.15-12.12-2.62-1.57-4.98-1.69-5.65-1.69h0Z"/>
            </g>
            <path class="cls-8" d="M27.12,17.86c-.15.55-.38,1.05-.67,1.51-2.18,3.55-7.81,4.56-10.32,4.73v.03c-.12,0-.26,0-.42,0-.16,0-.3,0-.42,0v-.03c-1.24-.08-3.23-.37-5.2-1.07,0,0-.01,0-.02,0-2.13-.76-4.23-2-5.29-3.98h0c-.19-.37-.36-.76-.47-1.19-1.11-3.97.38-7.25,2.4-9.45,0,0,0,0,0,0,.82-.89,1.72-1.61,2.57-2.12,2.62-1.57,5.93-1.62,6.42-1.62.49,0,3.81.05,6.42,1.62,2.95,1.77,6.53,6,4.98,11.58Z"/>
            <path class="cls-4" d="M10.08,23.03c-2.53-.9-5.01-2.48-5.76-5.17-1.11-3.97.38-7.25,2.4-9.45-.24.36-6.77,10.43,3.36,14.62Z"/>
            <path class="cls-4" d="M21.36,23.03c2.53-.9,5.01-2.48,5.76-5.17,1.11-3.97-.38-7.25-2.4-9.45.24.36,6.77,10.43-3.36,14.62Z"/>
          </g>
          <path class="cls-1" d="M15.74,18.77c1.46.02,2.09-.63,2.01-1.38s-1.09-1.23-1.09-1.23l-.92.05h-.02s-.92-.05-.92-.05c0,0-1.01.47-1.09,1.23s.55,1.4,2.01,1.38h.02Z"/>
          <path class="cls-13" d="M24.84,15.9s.51-1.97-1.48-1.99c0,0-.31-1.59-1.8-1.25,0,0-.45-1.17-2.07-.79,0,0-1.06-1.1-2.23-.18,0,0-.4-.36-1.52-.36h-.04c-1.12,0-1.52.36-1.52.36-1.17-.92-2.23.18-2.23.18-1.62-.38-2.07.79-2.07.79-1.49-.34-1.8,1.25-1.8,1.25-1.99.01-1.48,1.99-1.48,1.99-1.13.99-.23,2.04-.23,2.04,0,0-.31,1.84,1.15,2.54,1.46.7,2.55-.47,2.55-.47,3.38-.3,3.36-3.7,3.36-3.7.94-.46,1.83-1.48,1.83-1.48l.44-.04h.02l.44.04s.89,1.02,1.83,1.48c0,0-.02,3.4,3.36,3.7,0,0,1.09,1.17,2.55.47,1.46-.7,1.15-2.54,1.15-2.54,0,0,.9-1.05-.23-2.04Z"/>
          <path class="cls-5" d="M16.14,24.11v.03c-.12,0-.26,0-.42,0-.16,0-.3,0-.42,0v-.03c-1.24-.08-3.23-.37-5.2-1.07,0,0-.01,0-.02,0-2.13-.76-4.23-2-5.29-3.98,2.08,1.04,10.12,5.78,21.66.33-2.18,3.55-7.81,4.56-10.32,4.73Z"/>
          <path class="cls-14" d="M15.74,17.11s1.22-.51,1.07-.98-1.07-.44-1.07-.44h-.02s-.92-.03-1.07.44,1.07.98,1.07.98h.02Z"/>
          <path class="cls-2" d="M14.55,17.5s.06.65.55.65.62-.53.62-.53c0,0,.19.53.59.53.44,0,.56-.65.56-.65"/>
          <g>
            <ellipse class="cls-12" cx="10.88" cy="15.62" rx="1.91" ry="1.44" transform="translate(-8.04 17.75) rotate(-61.56)"/>
            <ellipse class="cls-3" cx="11.13" cy="16.22" rx=".82" ry=".63" transform="translate(-8.45 14.32) rotate(-50)"/>
            <ellipse class="cls-3" cx="10.28" cy="14.82" rx=".4" ry=".31" transform="translate(-7.68 13.18) rotate(-50)"/>
            <circle class="cls-3" cx="10.98" cy="14.65" r=".2"/>
          </g>
          <g>
            <ellipse class="cls-12" cx="20.57" cy="15.62" rx="1.44" ry="1.91" transform="translate(-4.96 11.68) rotate(-28.44)"/>
            <ellipse class="cls-3" cx="20.31" cy="16.22" rx=".63" ry=".82" transform="translate(-5.67 16.85) rotate(-40)"/>
            <ellipse class="cls-3" cx="21.16" cy="14.82" rx=".31" ry=".4" transform="translate(-4.58 17.07) rotate(-40)"/>
            <circle class="cls-3" cx="20.46" cy="14.65" r=".2"/>
          </g>
          <path class="cls-6" d="M5.41,14.08s1.28-8.83,10.32-8.83c9.22,0,10.47,8.49,10.47,8.49"/>
        </g>
      </g>
    </g>
  </g>
</svg>