<?xml version="1.0" encoding="UTF-8"?>
<svg xmlns="http://www.w3.org/2000/svg" xmlns:xlink="http://www.w3.org/1999/xlink" viewBox="0 0 42 23.91">
  <defs>
    <style>
      .cls-1 {
        fill: #cebfb6;
      }

      .cls-2 {
        fill: none;
        stroke-width: .26px;
      }

      .cls-2, .cls-3 {
        stroke: #59514f;
        stroke-linecap: round;
        stroke-linejoin: round;
      }

      .cls-4 {
        fill: #ffe8e2;
      }

      .cls-5 {
        fill: #fff;
      }

      .cls-5, .cls-6, .cls-7 {
        mix-blend-mode: overlay;
      }

      .cls-5, .cls-7 {
        opacity: .5;
      }

      .cls-8 {
        fill: #59514f;
      }

      .cls-9, .cls-3 {
        fill: #a09290;
      }

      .cls-10 {
        fill: #d0c2b5;
      }

      .cls-11 {
        isolation: isolate;
      }

      .cls-12 {
        fill: #a1948f;
      }

      .cls-13 {
        fill: #2e0000;
      }

      .cls-14 {
        fill: #625c66;
      }

      .cls-15 {
        fill: #e56e8b;
      }

      .cls-6 {
        opacity: .3;
      }

      .cls-3 {
        stroke-width: .32px;
      }

      .cls-7 {
        fill: url(#linear-gradient);
      }

      .cls-16 {
        fill: #332f36;
      }
    </style>
    <linearGradient id="linear-gradient" x1="10.86" y1="1.91" x2="10.86" y2="7.24" gradientTransform="translate(19.85 1.5) rotate(-1.13)" gradientUnits="userSpaceOnUse">
      <stop offset="0" stop-color="#fff"/>
      <stop offset="1" stop-color="#fff" stop-opacity="0"/>
    </linearGradient>
  </defs>
  <g class="cls-11">
    <g id="Layer_2" data-name="Layer 2">
      <g id="Layer_1-2" data-name="Layer 1">
        <g>
          <g>
            <g>
              <path class="cls-9" d="M6.92,18.17c-.91,0-1.58-.33-1.79-.44-.03,0-.06.02-.09.02-.23.06-.46.09-.68.09-.98,0-1.41-.64-1.52-.84C.55,16.1.18,14.22.16,14.14c0-.05,0-.1.04-.13.03-.04.08-.06.12-.06h0c.63,0,1.28-.41,1.48-.55.01-.23.09-.87.54-1.4.21-.24.5-.45.88-.63.35-.16.62-.21.64-.22.52-.48,1.09-.58,1.46-.58.09,0,.16,0,.22.01.03,0,.05,0,.07,0,.61-.43,1.28-.65,1.99-.65.6,0,1.03.15,1.18.21.16-.05.31-.09.45-.12.58-.14,1.13-.22,1.65-.22.22,0,.43.01.62.04,2.23.28,3.02,1.92,3.06,1.99l.24.96c-.07,1.85-.92,2.71-1.61,3.11-.58.33-1.12.41-1.32.42-.24.29-.51.53-.81.72-.62.4-1.25.49-1.66.49h0c-.17,0-.3-.01-.37-.02-.55.35-1.12.56-1.72.62-.12.01-.24.02-.36.02Z"/>
              <path class="cls-8" d="M10.87,9.98c.21,0,.41.01.61.04,2.17.27,2.93,1.9,2.93,1.9l.22.93c-.07,1.69-.82,2.52-1.54,2.94-.68.39-1.32.4-1.32.4-.26.33-.54.56-.82.73-.6.39-1.2.47-1.58.47,0,0-.02,0-.02,0-.23,0-.38-.03-.38-.03-.6.39-1.18.57-1.7.62-.12.01-.23.02-.34.02-1.04,0-1.77-.45-1.77-.45-.05.02-.1.03-.14.04-.24.06-.45.09-.64.09-1.05,0-1.41-.81-1.41-.81-2.29-.87-2.64-2.77-2.64-2.77,0,0,.01,0,.02,0,.8,0,1.62-.63,1.62-.63,0,0-.02-.77.51-1.38.24-.27.55-.46.82-.59.33-.15.6-.2.6-.2.56-.49,1.1-.58,1.43-.58.08,0,.15,0,.2.01.08,0,.13.02.13.02.71-.52,1.4-.66,1.95-.66,0,0,.02,0,.03,0h0c.68,0,1.14.22,1.14.22.17-.05.34-.1.49-.13.6-.15,1.13-.21,1.61-.21M10.87,9.66h0c-.53,0-1.1.07-1.69.22-.13.03-.26.06-.4.11-.2-.08-.62-.2-1.16-.2-.75,0-1.43.22-2.06.64,0,0,0,0-.01,0-.06,0-.14-.01-.23-.01-.38,0-.97.11-1.58.61-.11.03-.33.09-.58.21-.4.19-.7.41-.93.67-.44.51-.55,1.12-.58,1.42-.24.16-.79.48-1.3.48-.1,0-.19.04-.26.12-.06.07-.1.17-.08.26.02.08.4,2.02,2.73,2.96.16.27.64.88,1.63.88.23,0,.47-.03.72-.1,0,0,.02,0,.03,0,.27.14.94.43,1.8.43.12,0,.24,0,.37-.02.61-.06,1.19-.27,1.75-.61.08,0,.18.02.31.02.46,0,1.12-.1,1.78-.52.29-.18.56-.41.81-.7.25-.03.78-.12,1.32-.43.73-.43,1.62-1.33,1.7-3.2,0-.03,0-.06,0-.09l-.22-.93s-.01-.04-.02-.06c-.03-.07-.87-1.8-3.18-2.08-.21-.02-.43-.04-.65-.04h0Z"/>
            </g>
            <path class="cls-14" d="M3.28,11.52c.04.3.18.74.55,1.28.72,1.03-.02,1.84.29,2.6.26.67.93,1.21.88,2.19-1.55.41-2.05-.72-2.05-.72-2.29-.87-2.64-2.77-2.64-2.77.8.01,1.64-.63,1.64-.63,0,0-.02-.77.51-1.38.24-.27.55-.46.82-.59Z"/>
            <path class="cls-14" d="M7.61,10.1c-.09.41-.15,1.06.22,1.67.5.83.54,1.13.46,2.06-.07.92.02,1.1.65,2.08.38.59.44,1.14.42,1.48-.25,0-.4-.03-.4-.03-.6.39-1.18.57-1.7.62.04-.44.04-1.05-.28-1.53-.46-.7-.68-1.13-.75-1.83-.07-.71.32-1.45-.38-2.48-.38-.56-.4-1.06-.34-1.41.08,0,.13.02.13.02.72-.52,1.42-.66,1.97-.66Z"/>
            <path class="cls-14" d="M11.47,10.02c.24.48.3,1.04.38,1.73.12,1.07-.1,1.49.62,2.43.39.51.6,1.11.62,1.61-.68.39-1.32.4-1.32.4-.26.33-.54.56-.82.73.1-1.26-.45-2.43-.94-3.06-.56-.69.04-1.37-.21-2.43-.13-.56-.36-.98-.54-1.24.87-.21,1.6-.25,2.22-.18Z"/>
          </g>
          <g>
            <path class="cls-9" d="M38.37,23.03c-1.34,0-2.69-1.32-2.96-1.61l-22.92.13s-1.08.77-2.1.77c-.54,0-.94-.21-1.21-.63-.88-1.37,1.61-3.61,2.04-3.99,0-.67.07-5.3,3.91-7.08,1.56-.72,3.41-1.09,5.52-1.09s3.63.37,3.64.37l10.62,5.53s1.67,1.43,2.5,2.07c1,.77,2.7,2.27,2.79,3.65.03.5-.14.93-.51,1.31-.37.37-.82.56-1.33.56h0Z"/>
            <path class="cls-8" d="M20.65,9.7c2.07,0,3.61.37,3.61.37l10.58,5.52s1.64,1.4,2.48,2.05c.84.65,3.89,3.1,2.27,4.72-.37.37-.79.52-1.21.52-1.42,0-2.89-1.61-2.89-1.61l-22.99.13s-1.12.77-2.1.77c-.42,0-.81-.14-1.08-.55-.88-1.36,2.07-3.83,2.07-3.83,0,0-.26-5.12,3.82-7.01,1.81-.84,3.8-1.08,5.45-1.08M20.65,9.38c-2.13,0-4.01.37-5.58,1.11-3.8,1.77-4,6.25-4.01,7.16-.62.54-2.94,2.72-2.02,4.15.3.46.76.7,1.35.7.91,0,1.9-.58,2.19-.77l22.76-.13c.37.37,1.69,1.61,3.03,1.61.55,0,1.04-.21,1.44-.61.4-.41.59-.89.55-1.43-.09-1.37-1.6-2.81-2.86-3.77-.83-.64-2.45-2.03-2.47-2.04-.02-.02-.04-.03-.06-.04l-10.58-5.52s-.05-.02-.07-.03c-.06-.02-1.6-.38-3.68-.38h0Z"/>
          </g>
          <g>
            <g>
              <g>
                <path class="cls-14" d="M38.76,9.93c-1.63,0-5.06-5-5.45-5.57-.05-.08-.03-.19.05-.24l.65-.45s.02-.01.04-.02c.82-.57,2.09-1.43,3.12-2.13.6-.4,1.12-.75,1.42-.94.44-.28.81-.41,1.15-.41.72,0,1.28.58,1.8,1.89.77,1.94-.14,4.09-.58,4.8.05.17.12.58-.03,1.04-.08.24-.22.47-.41.67-.05.05-.1.1-.15.14,0,.14-.02.41-.22.66-.25.33-.7.51-1.33.55,0,0-.05,0-.05,0Z"/>
                <path class="cls-16" d="M39.73.35c.61,0,1.13.51,1.64,1.78.77,1.93-.19,4.08-.61,4.71,0,0,.18.46,0,1.01-.07.2-.18.41-.37.61-.06.06-.13.13-.2.19,0,0,.18,1.01-1.38,1.11-.01,0-.03,0-.04,0-1.58,0-5.31-5.49-5.31-5.49,0,0,.26-.17.65-.45h0s0,0,.01,0c0,0,.01,0,.02-.01.78-.53,2.07-1.42,3.12-2.13.6-.4,1.12-.75,1.42-.94.39-.24.73-.38,1.05-.38M39.73,0c-.37,0-.77.14-1.24.44-.3.19-.82.54-1.43.94-1.05.71-2.34,1.59-3.12,2.13-.01,0-.03.01-.04.02-.4.28-.65.45-.65.45-.16.11-.2.32-.09.48.64.94,3.91,5.64,5.59,5.64,0,0,.06,0,.07,0,.68-.04,1.16-.25,1.45-.62.2-.25.25-.51.26-.69.03-.03.07-.07.1-.1.21-.23.36-.48.45-.74.15-.45.1-.85.05-1.07.49-.82,1.34-2.93.56-4.89-.37-.93-.93-2-1.96-2h0Z"/>
              </g>
              <path class="cls-5" d="M34.13,3.8c.4-.25,4.71-2.94,5.62-3.07.95-.14,1.66,1.65,1.59,3.13-.07,1.49-.76,3.03-.76,3.03,0,0,.16.42.02.88-.08.27-.17.53-.22.69.71-.76.38-1.62.38-1.62.42-.63,1.38-2.78.61-4.71-.77-1.93-1.57-2.1-2.69-1.39-.84.53-3.32,2.23-4.54,3.07Z"/>
              <path class="cls-10" d="M36.91,6.88s.2.41.49.91c.43.73,1.04,1.65,1.47,1.69.72.07,1.03-.63,1.03-.63l-.3-.08c1-.48.9-1.47.88-1.44s-.39.3-.44.34c.03-.06.07-.11.1-.17h0c.89-1.6,1.16-4.22.56-5.28-.63-1.11-1.68-.94-2.76.49-1.08,1.43-1.03,4.19-1.03,4.19Z"/>
              <path class="cls-12" d="M36.91,6.88s.2.41.49.91c.26.05.48,0,.48,0,0,0,.64-.19.68-.65.04-.46-.32-.62-.32-.62,0,0,.84-.39.01-1.32,0,0,1.12-.83.31-2.34,0,0,.5-.96,1.11-.72.61.24,1.29,2.77.47,5.35h0c.89-1.6,1.16-4.22.56-5.28-.63-1.11-1.68-.94-2.76.49-1.08,1.43-1.03,4.19-1.03,4.19Z"/>
              <path class="cls-6" d="M33.45,4.26s3.79,5.59,5.35,5.49c1.56-.1,1.38-1.11,1.38-1.11.07-.06.14-.12.2-.19.19-.2.31-.41.37-.61-.68-.15-1.55-.54-2.25-1.54-.97-1.38-1.19-3.52-1.24-4.64-1.05.71-2.34,1.59-3.12,2.13,0,0-.01,0-.02.01,0,0,0,0-.01,0h0c-.4.28-.65.45-.65.45Z"/>
            </g>
            <g>
              <g>
                <path class="cls-14" d="M22.84,10.24c-.62-.02-1.08-.18-1.34-.5-.21-.24-.24-.51-.25-.65-.05-.04-.1-.09-.15-.14-.2-.2-.35-.42-.44-.66-.17-.45-.11-.86-.07-1.04-.47-.69-1.46-2.81-.77-4.77.48-1.35,1.03-1.96,1.77-1.96.32,0,.68.12,1.11.37.31.18.84.51,1.46.88,1.08.67,2.41,1.5,3.2,2l.7.44c.08.05.11.16.05.24-.37.59-3.64,5.78-5.26,5.78h-.02Z"/>
                <path class="cls-16" d="M21.59.7c.31,0,.65.12,1.02.34.31.18.84.5,1.45.88,1.08.67,2.41,1.5,3.2,2,0,0,.01,0,.02.01h0s0,0,.01,0h0c.41.26.67.43.67.43,0,0-3.54,5.7-5.11,5.7,0,0-.01,0-.02,0-1.56-.04-1.42-1.06-1.42-1.06-.08-.06-.14-.12-.21-.18-.2-.2-.32-.4-.4-.6-.2-.54-.04-1.01-.04-1.01-.44-.61-1.49-2.73-.8-4.68.47-1.32.98-1.84,1.61-1.84M21.59.36c-1.07,0-1.59,1.11-1.93,2.07-.7,1.99.23,4.07.75,4.87-.04.22-.07.62.09,1.07.1.26.26.5.47.72.04.03.07.07.11.1.02.18.08.44.28.68.3.35.8.54,1.47.56,1.7,0,4.82-4.88,5.43-5.86.1-.16.05-.37-.11-.48,0,0-.26-.16-.67-.42-.01,0-.03-.02-.04-.02-.01,0-.02-.01-.03-.02-.76-.48-2.09-1.32-3.17-1.98-.62-.38-1.15-.71-1.46-.89-.46-.27-.84-.39-1.2-.39h0Z"/>
              </g>
              <path class="cls-5" d="M27.27,3.93c-.41-.24-4.82-2.75-5.74-2.85-.95-.1-1.6,1.71-1.46,3.19.13,1.48.88,3,.88,3,0,0-.14.43.02.88.09.27.19.52.25.69-.74-.73-.44-1.61-.44-1.61-.44-.61-1.49-2.73-.8-4.68.69-1.96,1.48-2.16,2.63-1.5.86.5,3.41,2.1,4.66,2.88Z"/>
              <path class="cls-10" d="M24.62,7.12s-.19.42-.45.93c-.4.75-.97,1.69-1.41,1.75-.72.1-1.05-.59-1.05-.59l.3-.09c-1.01-.44-.96-1.43-.94-1.41s.41.29.46.32c-.04-.05-.07-.11-.11-.17h0c-.96-1.56-1.33-4.17-.76-5.26.59-1.13,1.64-1,2.78.38,1.14,1.38,1.2,4.14,1.2,4.14Z"/>
              <path class="cls-12" d="M24.62,7.12s-.19.42-.45.93c-.25.06-.48.02-.48.02,0,0-.65-.16-.7-.62-.05-.46.29-.63.29-.63,0,0-.86-.36-.06-1.32,0,0-1.16-.79-.4-2.33,0,0-.54-.94-1.14-.67-.6.26-1.18,2.82-.26,5.37h0c-.96-1.56-1.33-4.17-.76-5.26.59-1.13,1.64-1,2.78.38,1.14,1.38,1.2,4.14,1.2,4.14Z"/>
              <path class="cls-6" d="M27.97,4.37s-3.57,5.74-5.13,5.7c-1.56-.04-1.42-1.06-1.42-1.06-.08-.06-.14-.12-.21-.18-.2-.2-.32-.4-.4-.6.67-.18,1.52-.6,2.19-1.63.91-1.42,1.05-3.57,1.05-4.68,1.08.67,2.41,1.5,3.2,2,0,0,.01,0,.02.01,0,0,0,0,.01,0h0c.41.26.67.43.67.43Z"/>
            </g>
            <g>
              <g>
                <path class="cls-9" d="M30.67,17.7s-.06,0-.09-.03c-1.01-.06-6.89-.57-8.05-4.45-1.44-4.79,3.23-8,4.18-8.6,1.91-1.2,3.66-1.26,3.99-1.27h.13c.59,0,2.16.11,3.91,1.11.97.56,5.76,3.58,4.51,8.43-1.02,3.95-6.91,4.67-7.88,4.77-.02.02-.05.03-.08.03h-.31c-.11,0-.21.01-.3.01Z"/>
                <path class="cls-8" d="M30.82,3.53c.53,0,2.09.1,3.82,1.09,2.14,1.23,5.47,4.2,4.43,8.23-.89,3.46-5.77,4.47-7.8,4.64v.02c-.05,0-.12,0-.18,0-.04,0-.08,0-.12,0-.11,0-.22,0-.3,0v-.02c-2.04-.1-6.95-.91-7.98-4.33-1.2-3.99,2.01-7.09,4.1-8.4,1.86-1.16,3.54-1.24,3.9-1.24.03,0,.07,0,.13,0M30.82,3.19h-.14c-.33,0-2.12.08-4.07,1.3-.97.61-5.73,3.88-4.25,8.79,1.19,3.96,7.08,4.51,8.18,4.57.04.02.08.03.13.03h0c.09,0,.2,0,.32-.01h.1c.07,0,.14,0,.2,0,.05,0,.09-.01.14-.03,1.12-.11,6.96-.89,7.99-4.89,1.28-4.97-3.6-8.05-4.59-8.62-1.79-1.02-3.39-1.13-3.99-1.13h0Z"/>
              </g>
              <path class="cls-9" d="M39.07,12.85c-.1.4-.26.76-.46,1.1-1.52,2.58-5.54,3.39-7.34,3.55v.02c-.08,0-.19,0-.3,0-.11,0-.22.01-.3,0v-.02c-.89-.04-2.33-.22-3.75-.69,0,0-.01,0-.01,0-1.54-.52-3.07-1.38-3.86-2.79h0c-.14-.27-.27-.54-.36-.85-.85-2.84.17-5.21,1.59-6.82,0,0,0,0,0,0,.57-.65,1.21-1.18,1.82-1.56,1.86-1.16,4.24-1.25,4.59-1.25.36-.01,2.73-.02,4.64,1.07,2.14,1.23,4.78,4.21,3.74,8.25Z"/>
              <path class="cls-5" d="M26.9,16.81c-1.83-.61-3.64-1.71-4.21-3.63-.85-2.84.17-5.21,1.59-6.82-.17.26-4.72,7.59,2.62,10.46Z"/>
              <path class="cls-5" d="M35.01,16.65c1.81-.68,3.56-1.85,4.07-3.8.74-2.87-.38-5.2-1.86-6.76.18.26,5.02,7.4-2.21,10.55Z"/>
            </g>
            <path class="cls-1" d="M30.9,13.66c1.05,0,1.49-.48,1.42-1.02s-.8-.87-.8-.87l-.66.05h-.02s-.66-.02-.66-.02c0,0-.72.35-.76.9s.42,1,1.46.96h.02Z"/>
            <path class="cls-14" d="M37.41,11.48s.34-1.42-1.09-1.41c0,0-.25-1.14-1.31-.88,0,0-.34-.83-1.5-.54,0,0-.78-.77-1.6-.1,0,0-.29-.25-1.1-.24h-.03c-.8.02-1.08.28-1.08.28-.85-.64-1.6.16-1.6.16-1.17-.25-1.48.6-1.48.6-1.08-.22-1.28.93-1.28.93-1.43.04-1.04,1.45-1.04,1.45-.8.72-.13,1.47-.13,1.47,0,0-.2,1.32.86,1.81,1.06.49,1.82-.37,1.82-.37,2.43-.26,2.36-2.7,2.36-2.7.67-.34,1.29-1.09,1.29-1.09l.32-.03h.02s.32.02.32.02c0,0,.65.72,1.34,1.04,0,0,.03,2.44,2.47,2.61,0,0,.8.82,1.84.3,1.04-.53.79-1.84.79-1.84,0,0,.63-.77-.19-1.46Z"/>
            <path class="cls-6" d="M31.27,17.49v.02c-.08,0-.19,0-.3,0-.11,0-.22.01-.3,0v-.02c-.89-.04-2.33-.22-3.75-.69,0,0-.01,0-.01,0-1.54-.52-3.07-1.38-3.86-2.79,1.51.72,7.35,4.01,15.57-.07-1.52,2.58-5.54,3.39-7.34,3.55Z"/>
            <path class="cls-15" d="M30.88,12.47s.87-.38.75-.72-.77-.3-.77-.3h-.02s-.66,0-.76.33.78.69.78.69h.02Z"/>
            <path class="cls-2" d="M30.03,12.77s.06.47.4.46.44-.39.44-.39c0,0,.15.38.43.37.32,0,.39-.48.39-.48"/>
            <g>
              <ellipse class="cls-13" cx="27.37" cy="11.47" rx="1.37" ry="1.04" transform="translate(4.62 30.53) rotate(-62.69)"/>
              <ellipse class="cls-4" cx="27.56" cy="11.9" rx=".59" ry=".45" transform="translate(1 25.89) rotate(-51.14)"/>
              <ellipse class="cls-4" cx="26.93" cy="10.91" rx=".29" ry=".22" transform="translate(1.54 25.03) rotate(-51.14)"/>
              <circle class="cls-4" cx="27.43" cy="10.77" r=".14"/>
            </g>
            <g>
              <ellipse class="cls-13" cx="34.33" cy="11.33" rx="1.04" ry="1.37" transform="translate(-1.12 18.42) rotate(-29.57)"/>
              <ellipse class="cls-4" cx="34.16" cy="11.77" rx=".45" ry=".59" transform="translate(.69 25.37) rotate(-41.13)"/>
              <ellipse class="cls-4" cx="34.75" cy="10.75" rx=".22" ry=".29" transform="translate(1.5 25.51) rotate(-41.13)"/>
              <circle class="cls-4" cx="34.24" cy="10.64" r=".14"/>
            </g>
            <path class="cls-7" d="M23.42,10.44s.8-6.36,7.29-6.49,7.65,5.95,7.65,5.95"/>
          </g>
          <path class="cls-3" d="M25.22,20.06s1.52,3.75,4.26,3.69,1.98-4.05-.83-5.54"/>
        </g>
      </g>
    </g>
  </g>
</svg>